<?xml version="1.0" encoding="UTF-8"?>
<!DOCTYPE svg PUBLIC "-//W3C//DTD SVG 1.1//EN" "http://www.w3.org/Graphics/SVG/1.1/DTD/svg11.dtd">
<!-- Creator: CorelDRAW -->
<svg xmlns="http://www.w3.org/2000/svg" xml:space="preserve" width="300px" height="70px" version="1.1" style="shape-rendering:geometricPrecision; text-rendering:geometricPrecision; image-rendering:optimizeQuality; fill-rule:evenodd; clip-rule:evenodd"
viewBox="0 0 300 70"
 xmlns:xlink="http://www.w3.org/1999/xlink"
 xmlns:xodm="http://www.corel.com/coreldraw/odm/2003">
 <defs>
  <style type="text/css">
   <![CDATA[
    .fil2 {fill:#434242;fill-rule:nonzero}
    .fil1 {fill:#E31E24;fill-rule:nonzero}
    .fil0 {fill:black;fill-rule:nonzero}
   ]]>
  </style>
 </defs>
 <g id="Livello_x0020_1">
  <metadata id="CorelCorpID_0Corel-Layer"/>
  <g id="_2319120304352">
   <path class="fil0" d="M206.405 -93.779l-1.212 0.813c-0.057,0.043 -0.107,0.078 -0.157,0.1 -0.05,0.021 -0.093,0.028 -0.135,0.028 -0.121,0 -0.229,-0.064 -0.321,-0.199 -0.093,-0.129 -0.135,-0.307 -0.135,-0.535 0,-0.342 0.121,-0.841 0.377,-1.49 0.25,-0.649 0.599,-1.376 1.063,-2.189 1.026,-1.782 2.21,-3.165 3.536,-4.156 1.333,-0.991 2.68,-1.483 4.042,-1.483 1.29,0 2.338,0.456 3.13,1.369 0.791,0.912 1.19,2.131 1.19,3.664 0,1.576 -0.449,3.593 -1.354,6.06 -0.906,2.467 -2.096,4.841 -3.572,7.129 -1.797,2.788 -3.814,4.977 -6.06,6.581 -2.239,1.604 -4.384,2.402 -6.43,2.402 -1.932,0 -3.48,-0.627 -4.634,-1.889 -1.156,-1.262 -1.733,-2.973 -1.733,-5.126 0,-2.595 0.713,-5.511 2.139,-8.762 1.426,-3.258 3.287,-6.117 5.568,-8.598 1.625,-1.768 3.515,-3.201 5.668,-4.306 2.153,-1.098 4.035,-1.647 5.646,-1.647 0.292,0 0.492,0.043 0.585,0.129 0.099,0.078 0.149,0.228 0.149,0.434 0,0.442 -0.763,0.827 -2.295,1.148 -1.533,0.321 -2.902,0.849 -4.114,1.59 -1.618,0.97 -3.051,2.182 -4.299,3.636 -1.255,1.447 -2.474,3.287 -3.657,5.511 -1.084,2.089 -1.932,4.107 -2.545,6.06 -0.614,1.946 -0.92,3.55 -0.92,4.805 0,1.597 0.414,2.887 1.233,3.85 0.82,0.969 1.89,1.454 3.216,1.454 2.003,0 4.049,-0.877 6.138,-2.623 2.089,-1.747 4.049,-4.242 5.889,-7.472 1.112,-1.967 2.003,-3.885 2.666,-5.768 0.67,-1.881 1.005,-3.336 1.005,-4.37 0,-1.076 -0.256,-1.953 -0.77,-2.645 -0.52,-0.691 -1.154,-1.034 -1.925,-1.034 -1.433,0 -2.709,0.614 -3.842,1.833 -1.127,1.219 -2.168,3.115 -3.13,5.696z"/>
   <path id="_1" class="fil0" d="M222.86 -79.164c-0.058,0.143 -0.101,0.278 -0.143,0.421 -0.043,0.135 -0.064,0.228 -0.064,0.263 0,0.1 0.021,0.186 0.071,0.264 0.05,0.079 0.107,0.121 0.178,0.136 0.228,0 0.977,-0.464 2.26,-1.391 1.283,-0.926 2.987,-2.231 5.105,-3.913l0 1.718 -0.984 0.755c-4.598,3.572 -7.379,5.355 -8.341,5.355 -0.236,0 -0.428,-0.114 -0.585,-0.335 -0.15,-0.229 -0.228,-0.514 -0.228,-0.863 0,-0.157 0.043,-0.364 0.128,-0.627 0.079,-0.271 0.2,-0.578 0.35,-0.927l3.593 -7.999c0.107,-0.25 0.263,-0.585 0.456,-1.006 0.378,-0.791 0.563,-1.262 0.563,-1.418 -0.014,-0.364 -0.62,-0.592 -1.818,-0.685 -0.592,-0.042 -1.076,-0.085 -1.44,-0.128 -0.848,1.697 -1.861,3.244 -3.037,4.62 -1.169,1.383 -2.524,2.623 -4.056,3.721l0 -1.718c1.183,-0.834 2.274,-1.868 3.265,-3.094 0.998,-1.226 1.839,-2.56 2.516,-4.007 -0.278,-0.164 -0.477,-0.356 -0.591,-0.577 -0.122,-0.214 -0.179,-0.492 -0.179,-0.827 0,-0.542 0.136,-0.984 0.414,-1.326 0.278,-0.342 0.634,-0.514 1.069,-0.514 0.357,0 0.656,0.129 0.892,0.378 0.242,0.25 0.356,0.571 0.356,0.948 0,0.179 -0.014,0.35 -0.043,0.5 -0.028,0.156 -0.064,0.313 -0.121,0.484 0.349,0 0.699,-0.007 1.062,-0.021 0.114,-0.014 0.178,-0.021 0.207,-0.021 1.169,0 2.003,0.156 2.51,0.47 0.498,0.314 0.748,0.82 0.748,1.533 0,0.25 -0.064,0.563 -0.185,0.934 -0.129,0.378 -0.421,1.076 -0.877,2.11l-3.051 6.787z"/>
   <path id="_2" class="fil0" d="M244.091 -83.384l0 1.711c-3.237,2.58 -5.533,4.227 -6.902,4.933 -1.361,0.706 -2.644,1.055 -3.842,1.055 -1.369,0 -2.417,-0.406 -3.137,-1.212 -0.727,-0.805 -1.091,-1.975 -1.091,-3.493 0,-1.226 0.249,-2.438 0.756,-3.643 0.499,-1.205 1.233,-2.331 2.195,-3.379 1.127,-1.227 2.367,-2.189 3.715,-2.881 1.34,-0.698 2.631,-1.048 3.857,-1.048 0.805,0 1.476,0.193 1.996,0.578 0.52,0.385 0.784,0.862 0.784,1.433 0,0.214 -0.035,0.456 -0.107,0.734 -0.071,0.278 -0.171,0.578 -0.313,0.898l-1.333 2.945 -1.505 -0.542 1.276 -2.837c0.1,-0.164 0.164,-0.314 0.207,-0.45 0.043,-0.128 0.064,-0.256 0.064,-0.363 0,-0.278 -0.099,-0.499 -0.292,-0.656 -0.193,-0.164 -0.47,-0.243 -0.834,-0.243 -0.963,0 -2.061,0.357 -3.301,1.063 -1.241,0.713 -2.317,1.625 -3.237,2.752 -0.713,0.848 -1.24,1.761 -1.597,2.723 -0.356,0.97 -0.534,1.968 -0.534,2.994 0,1.055 0.235,1.854 0.698,2.382 0.471,0.527 1.176,0.791 2.125,0.791 1.575,0 4.655,-1.797 9.247,-5.39l1.105 -0.855z"/>
   <path id="_3" class="fil0" d="M243.485 -81.21l0 -1.718c0.684,-0.456 1.39,-1.034 2.117,-1.732 0.72,-0.692 1.504,-1.541 2.339,-2.546l7.62 -16.283c0.129,-0.278 0.3,-0.663 0.528,-1.148 0.692,-1.575 1.284,-2.36 1.775,-2.36 0.15,0 0.286,0.079 0.392,0.229 0.115,0.156 0.172,0.349 0.172,0.584 0,0.542 -1.02,2.945 -3.052,7.201 -0.984,2.031 -1.768,3.664 -2.338,4.905l-6.495 13.802c4.064,-4.021 7.151,-6.894 9.261,-8.612 2.11,-1.718 3.579,-2.581 4.413,-2.581 0.207,0 0.371,0.093 0.485,0.271 0.107,0.185 0.164,0.449 0.164,0.798 0,0.179 -0.036,0.378 -0.107,0.606 -0.064,0.221 -0.207,0.578 -0.414,1.063l-4.406 9.567c-0.099,0.221 -0.163,0.378 -0.199,0.478 -0.036,0.1 -0.05,0.164 -0.05,0.206 0,0.115 0.021,0.207 0.071,0.271 0.05,0.072 0.107,0.114 0.178,0.129 0.243,0 1.013,-0.471 2.325,-1.412 1.311,-0.941 3.008,-2.238 5.083,-3.892l0 1.711 -0.984 0.755c-4.598,3.572 -7.379,5.362 -8.341,5.362 -0.236,0 -0.435,-0.114 -0.606,-0.35 -0.164,-0.228 -0.25,-0.527 -0.25,-0.891 0,-0.157 0.043,-0.364 0.136,-0.62 0.092,-0.257 0.221,-0.556 0.385,-0.891l4.177 -8.791c0.236,-0.477 0.378,-0.777 0.435,-0.898 0.057,-0.128 0.086,-0.221 0.086,-0.271 0,-0.128 -0.014,-0.221 -0.043,-0.285 -0.028,-0.064 -0.071,-0.093 -0.121,-0.093 -0.185,0 -0.713,0.328 -1.583,0.984 -0.87,0.649 -1.853,1.483 -2.951,2.481 -1.355,1.184 -2.624,2.381 -3.815,3.593 -1.19,1.212 -2.245,2.367 -3.165,3.465 -0.142,0.171 -0.335,0.406 -0.585,0.713 -0.891,1.155 -1.639,1.725 -2.238,1.725 -0.264,0 -0.471,-0.1 -0.627,-0.299 -0.15,-0.207 -0.229,-0.471 -0.229,-0.806 0,-0.406 0.635,-1.754 1.904,-4.042 0.599,-1.07 1.069,-1.939 1.419,-2.595 -0.528,0.485 -1.027,0.919 -1.505,1.283 -0.47,0.371 -0.926,0.677 -1.361,0.934z"/>
   <path id="_4" class="fil0" d="M265.279 -79.164c-0.071,0.15 -0.128,0.292 -0.178,0.414 -0.05,0.128 -0.079,0.213 -0.079,0.27 0,0.115 0.029,0.207 0.086,0.286 0.057,0.078 0.107,0.114 0.164,0.114 0.242,0 1.012,-0.471 2.324,-1.412 1.312,-0.941 3.008,-2.238 5.083,-3.892l0 1.711 -0.984 0.755c-4.598,3.572 -7.378,5.362 -8.341,5.362 -0.25,0 -0.456,-0.114 -0.613,-0.35 -0.164,-0.228 -0.243,-0.527 -0.243,-0.891 0,-0.199 0.036,-0.421 0.115,-0.684 0.078,-0.257 0.192,-0.535 0.342,-0.827l2.616 -5.119c-0.527,0.485 -1.034,0.919 -1.504,1.283 -0.478,0.371 -0.927,0.677 -1.362,0.934l0 -1.718c1.105,-0.806 2.068,-1.619 2.902,-2.445 0.841,-0.835 1.355,-1.441 1.547,-1.833l1.875 -3.835 1.839 0 -5.589 11.877zm5.946 -14.829c-0.307,0 -0.549,-0.092 -0.72,-0.271 -0.178,-0.178 -0.264,-0.42 -0.264,-0.713 0,-0.584 0.185,-1.133 0.556,-1.654 0.371,-0.52 0.784,-0.784 1.241,-0.784 0.292,0 0.527,0.093 0.713,0.285 0.178,0.186 0.27,0.428 0.27,0.735 0,0.656 -0.171,1.219 -0.513,1.689 -0.342,0.478 -0.77,0.713 -1.283,0.713z"/>
   <path id="_5" class="fil0" d="M283.544 -84.554c2.196,-3.6 3.978,-7.243 5.347,-10.914 1.369,-3.679 2.075,-6.588 2.132,-8.748 -1.405,1.946 -2.773,4.662 -4.107,8.142 -1.333,3.478 -2.452,7.321 -3.372,11.52zm8.591 1.17l0 1.718 -1.191 0.898c-4.363,3.387 -7.008,5.083 -7.927,5.083 -0.62,0 -1.091,-0.249 -1.405,-0.756 -0.314,-0.498 -0.47,-1.261 -0.47,-2.274l0 -0.399c-1.198,1.184 -2.253,2.053 -3.159,2.602 -0.905,0.549 -1.718,0.827 -2.445,0.827 -1.155,0 -2.067,-0.456 -2.731,-1.369 -0.663,-0.912 -0.991,-2.16 -0.991,-3.75 0,-2.937 1.163,-5.496 3.48,-7.685 2.324,-2.189 5.111,-3.279 8.369,-3.279l0.086 0c1.533,-4.585 3.059,-8.27 4.584,-11.072 1.526,-2.802 2.738,-4.199 3.629,-4.199 0.278,0 0.492,0.178 0.634,0.542 0.15,0.363 0.222,0.862 0.222,1.504 0,1.098 -0.257,2.623 -0.771,4.563 -0.52,1.939 -1.254,4.142 -2.217,6.608 -1.005,2.545 -2.081,4.898 -3.229,7.037 -1.148,2.146 -2.36,4.057 -3.629,5.746 -0.05,0.292 -0.093,0.577 -0.121,0.856 -0.029,0.278 -0.043,0.549 -0.043,0.82 0,0.527 0.093,0.962 0.271,1.297 0.185,0.335 0.406,0.499 0.67,0.499 0.656,0 2.901,-1.511 6.737,-4.541l1.647 -1.276zm-10.637 1.525c0.107,-1.026 0.3,-2.167 0.571,-3.422 0.27,-1.248 0.677,-2.873 1.218,-4.862l-0.078 0c-2.495,0 -4.719,0.955 -6.673,2.866 -1.946,1.904 -2.923,4 -2.923,6.288 0,1.069 0.214,1.932 0.635,2.581 0.428,0.649 0.983,0.969 1.668,0.969 0.57,0 1.297,-0.349 2.182,-1.048 0.884,-0.698 2.017,-1.817 3.4,-3.372z"/>
   <path id="_6" class="fil0" d="M287.986 -75c1.989,-1.854 3.914,-4.271 5.775,-7.258 1.853,-2.994 4.035,-7.258 6.537,-12.804 0.535,-1.198 1.198,-2.766 2.003,-4.72 1.676,-4.014 3.03,-6.017 4.071,-6.017 0.521,0 0.906,0.157 1.162,0.463 0.257,0.307 0.385,0.778 0.385,1.419 -0.014,0.307 -0.071,0.756 -0.178,1.348 -0.1,0.591 -0.257,1.34 -0.463,2.231l-4.435 19.342c7.629,-10.038 12.904,-16.718 15.82,-20.033 2.916,-3.323 4.869,-4.984 5.86,-4.984 0.335,0 0.614,0.086 0.849,0.25 0.228,0.171 0.342,0.37 0.342,0.606 0,0.713 -0.941,2.93 -2.823,6.659 -1.241,2.466 -2.239,4.484 -2.987,6.052 -1.704,3.536 -2.973,6.623 -3.807,9.247 -0.834,2.624 -1.255,4.827 -1.255,6.609l0 0.606 -2.175 0c0.043,-2.617 0.963,-6.181 2.759,-10.701 1.797,-4.52 4.613,-10.345 8.449,-17.488 -1.326,1.269 -3.387,3.593 -6.181,6.972 -2.802,3.387 -6.239,7.721 -10.324,13.011 -1.026,1.333 -2.238,3.001 -3.636,4.99 -1.525,2.196 -2.516,3.301 -2.965,3.301 -0.164,0 -0.321,-0.099 -0.457,-0.292 -0.142,-0.2 -0.206,-0.428 -0.206,-0.691 0,-0.25 0.107,-0.827 0.328,-1.733 0.085,-0.378 0.156,-0.684 0.213,-0.92l5.347 -24.125c-0.599,1.333 -1.489,3.365 -2.673,6.081 -4.456,10.345 -8.627,17.873 -12.512,22.579l-2.823 0z"/>
   <path id="_7" class="fil0" d="M330.876 -79.143c-0.05,0.136 -0.1,0.271 -0.143,0.393 -0.043,0.128 -0.064,0.213 -0.064,0.27 0,0.1 0.029,0.193 0.086,0.271 0.057,0.086 0.113,0.129 0.185,0.129 0.221,0 0.991,-0.471 2.31,-1.412 1.319,-0.941 3.015,-2.238 5.09,-3.892l0 1.711 -0.52 0.399c-4.898,3.807 -7.828,5.718 -8.805,5.718 -0.207,0 -0.392,-0.1 -0.563,-0.286 -0.164,-0.192 -0.25,-0.427 -0.25,-0.705 0,-0.136 0.05,-0.364 0.143,-0.671 0.1,-0.306 0.235,-0.67 0.42,-1.09l1.369 -3.116c-1.397,2.082 -2.609,3.558 -3.643,4.428 -1.041,0.876 -2.067,1.311 -3.08,1.311 -1.062,0 -1.925,-0.449 -2.588,-1.34 -0.67,-0.891 -1.005,-2.053 -1.005,-3.486 0,-1.063 0.2,-2.068 0.606,-3.023 0.406,-0.956 1.012,-1.889 1.84,-2.809 1.39,-1.519 3.037,-2.73 4.947,-3.636 1.904,-0.906 3.75,-1.362 5.526,-1.362 0.741,0 1.397,0.072 1.967,0.221 0.57,0.15 1.127,0.393 1.668,0.728l-0.085 1.625c-0.585,-0.385 -1.162,-0.67 -1.74,-0.848 -0.577,-0.179 -1.197,-0.271 -1.846,-0.271 -1.562,0 -3.194,0.406 -4.912,1.212 -1.711,0.805 -3.101,1.832 -4.171,3.072 -0.684,0.792 -1.212,1.626 -1.575,2.496 -0.371,0.869 -0.557,1.718 -0.557,2.559 0,0.97 0.207,1.739 0.613,2.303 0.414,0.563 0.963,0.848 1.64,0.848 0.849,0 1.925,-0.706 3.23,-2.11 1.297,-1.412 3.393,-4.228 6.273,-8.455l1.676 0.164 -4.042 8.654z"/>
   <path id="_8" class="fil0" d="M337.684 -81.21l0 -1.718c1.105,-0.806 2.075,-1.619 2.909,-2.452 0.834,-0.828 1.347,-1.434 1.547,-1.826l1.882 -3.835 1.84 0 -5.126 10.765c4.07,-4.021 7.157,-6.894 9.268,-8.612 2.103,-1.718 3.579,-2.581 4.413,-2.581 0.206,0 0.371,0.093 0.484,0.271 0.107,0.185 0.164,0.449 0.164,0.798 0,0.179 -0.035,0.378 -0.107,0.606 -0.064,0.221 -0.206,0.578 -0.413,1.063l-4.406 9.567c-0.093,0.221 -0.164,0.378 -0.2,0.478 -0.035,0.1 -0.049,0.164 -0.049,0.206 0,0.115 0.021,0.207 0.071,0.271 0.05,0.072 0.107,0.114 0.178,0.129 0.235,0 1.013,-0.471 2.324,-1.412 1.312,-0.934 3.009,-2.238 5.083,-3.892l0 1.711 -0.983 0.755c-4.599,3.572 -7.379,5.362 -8.342,5.362 -0.242,0 -0.442,-0.114 -0.606,-0.35 -0.171,-0.228 -0.256,-0.527 -0.256,-0.891 0,-0.157 0.05,-0.364 0.142,-0.62 0.086,-0.257 0.214,-0.556 0.385,-0.891l4.178 -8.791c0.235,-0.477 0.378,-0.777 0.435,-0.898 0.057,-0.128 0.085,-0.221 0.085,-0.271 0,-0.128 -0.014,-0.221 -0.042,-0.285 -0.029,-0.064 -0.072,-0.093 -0.121,-0.093 -0.186,0 -0.713,0.328 -1.583,0.984 -0.87,0.649 -1.854,1.483 -2.952,2.481 -1.354,1.184 -2.623,2.381 -3.814,3.593 -1.191,1.212 -2.246,2.367 -3.165,3.465 -0.143,0.171 -0.336,0.406 -0.585,0.713 -0.891,1.155 -1.64,1.725 -2.238,1.725 -0.264,0 -0.471,-0.1 -0.628,-0.299 -0.149,-0.207 -0.228,-0.471 -0.228,-0.806 0,-0.406 0.634,-1.754 1.903,-4.042 0.599,-1.07 1.07,-1.939 1.419,-2.595 -0.527,0.492 -1.034,0.919 -1.504,1.283 -0.471,0.371 -0.927,0.684 -1.362,0.934z"/>
   <path id="_9" class="fil0" d="M359.479 -79.164c-0.072,0.15 -0.129,0.292 -0.179,0.414 -0.05,0.128 -0.078,0.213 -0.078,0.27 0,0.115 0.028,0.207 0.085,0.286 0.058,0.078 0.108,0.114 0.165,0.114 0.242,0 1.012,-0.471 2.324,-1.412 1.312,-0.941 3.008,-2.238 5.083,-3.892l0 1.711 -0.984 0.755c-4.599,3.572 -7.379,5.362 -8.341,5.362 -0.25,0 -0.457,-0.114 -0.614,-0.35 -0.163,-0.228 -0.242,-0.527 -0.242,-0.891 0,-0.199 0.036,-0.421 0.114,-0.684 0.079,-0.257 0.193,-0.535 0.342,-0.827l2.617 -5.119c-0.528,0.485 -1.034,0.919 -1.505,1.283 -0.477,0.371 -0.926,0.677 -1.361,0.934l0 -1.718c1.105,-0.806 2.067,-1.619 2.902,-2.445 0.841,-0.835 1.354,-1.441 1.547,-1.833l1.875 -3.835 1.839 0 -5.589 11.877zm5.946 -14.829c-0.307,0 -0.55,-0.092 -0.721,-0.271 -0.178,-0.178 -0.263,-0.42 -0.263,-0.713 0,-0.584 0.185,-1.133 0.556,-1.654 0.37,-0.52 0.784,-0.784 1.24,-0.784 0.293,0 0.528,0.093 0.713,0.285 0.178,0.186 0.271,0.428 0.271,0.735 0,0.656 -0.171,1.219 -0.513,1.689 -0.343,0.478 -0.77,0.713 -1.283,0.713z"/>
   <path id="_10" class="fil0" d="M377.245 -79.143c-0.05,0.136 -0.1,0.271 -0.143,0.393 -0.043,0.128 -0.064,0.213 -0.064,0.27 0,0.1 0.029,0.193 0.086,0.271 0.057,0.086 0.114,0.129 0.185,0.129 0.221,0 0.991,-0.471 2.31,-1.412 1.319,-0.941 3.016,-2.238 5.09,-3.892l0 1.711 -0.52 0.399c-4.898,3.807 -7.828,5.718 -8.805,5.718 -0.207,0 -0.392,-0.1 -0.563,-0.286 -0.164,-0.192 -0.25,-0.427 -0.25,-0.705 0,-0.136 0.05,-0.364 0.143,-0.671 0.1,-0.306 0.235,-0.67 0.421,-1.09l1.368 -3.116c-1.397,2.082 -2.609,3.558 -3.643,4.428 -1.04,0.876 -2.067,1.311 -3.079,1.311 -1.063,0 -1.925,-0.449 -2.588,-1.34 -0.671,-0.891 -1.006,-2.053 -1.006,-3.486 0,-1.063 0.2,-2.068 0.606,-3.023 0.407,-0.956 1.013,-1.889 1.84,-2.809 1.39,-1.519 3.037,-2.73 4.947,-3.636 1.904,-0.906 3.75,-1.362 5.526,-1.362 0.741,0 1.397,0.072 1.967,0.221 0.571,0.15 1.127,0.393 1.668,0.728l-0.085 1.625c-0.585,-0.385 -1.162,-0.67 -1.74,-0.848 -0.577,-0.179 -1.197,-0.271 -1.846,-0.271 -1.561,0 -3.194,0.406 -4.912,1.212 -1.711,0.805 -3.101,1.832 -4.171,3.072 -0.684,0.792 -1.212,1.626 -1.575,2.496 -0.371,0.869 -0.556,1.718 -0.556,2.559 0,0.97 0.206,1.739 0.613,2.303 0.413,0.563 0.962,0.848 1.64,0.848 0.848,0 1.924,-0.706 3.229,-2.11 1.297,-1.412 3.394,-4.228 6.274,-8.455l1.675 0.164 -4.042 8.654z"/>
  </g>
  <g id="_2319120305504">
   <g>
    <path class="fil1" d="M9.714 23.156l0 0.05 -0.05 -0.05 -0.049 0.099 -0.05 0.05 0.05 0 0 0.05c0.398,0.3 0.748,0.649 1.097,1.048 0.249,0.399 0.498,0.798 0.648,1.196 0.199,0.4 0.299,0.848 0.349,1.247 0.05,0.399 0.05,0.798 0,1.147 -0.1,0.2 -0.15,0.499 -0.299,0.848 -0.15,0.349 -0.299,0.698 -0.449,1.097 -0.15,0.399 -0.349,0.798 -0.449,1.147 -0.199,0.399 -0.299,0.748 -0.349,1.098 -0.15,0.648 -0.199,1.346 -0.1,2.094 0.1,0.748 0.3,1.496 0.549,2.194 0.349,0.748 0.748,1.446 1.197,2.095 0.498,0.698 1.047,1.297 1.696,1.746 0.947,0.897 1.994,1.695 3.241,2.393 0.15,0.05 0.299,0.15 0.449,0.25l0 0.049c0.15,0.05 0.299,0.15 0.499,0.25 0.498,0.249 0.997,0.548 1.496,0.798 -0.05,0.049 -0.1,0.099 -0.2,0.149 -0.299,0.25 -0.648,0.599 -0.897,0.998 -0.3,0.399 -0.499,0.748 -0.699,1.147 -0.149,0.449 -0.249,0.848 -0.299,1.297 -0.05,0.448 -0.05,0.797 0.05,1.146 0,0.2 0.1,0.4 0.2,0.649 0.049,0.199 0.149,0.399 0.249,0.648 0.05,0.2 0.149,0.449 0.249,0.648 0.1,0.15 0.15,0.349 0.15,0.449 0,0.2 0.05,0.399 0,0.649 0,0.249 -0.05,0.448 -0.15,0.698 -0.1,0.249 -0.249,0.448 -0.399,0.698 -0.199,0.199 -0.399,0.399 -0.598,0.598l-0.05 0 0.05 0.05 0 0.05 0 -0.05 0.05 0.05c0.249,-0.149 0.498,-0.249 0.798,-0.249 0.249,-0.05 0.548,-0.05 0.798,0 0.249,0 0.498,0.1 0.698,0.199 0.199,0.05 0.399,0.2 0.549,0.3 0.099,0.099 0.199,0.199 0.348,0.398 0.1,0.15 0.25,0.35 0.399,0.549 0.15,0.15 0.3,0.349 0.449,0.549 0.15,0.149 0.299,0.349 0.449,0.498 0.249,0.2 0.599,0.399 0.998,0.599 0.348,0.15 0.797,0.249 1.246,0.349 0.449,0.05 0.898,0.05 1.347,0 0.499,-0.05 0.898,-0.15 1.346,-0.299 0.748,-0.299 1.497,-0.599 2.045,-0.898 0.1,-0.1 0.2,-0.15 0.299,-0.199 0.05,-0.05 0.15,-0.1 0.25,-0.15 1.047,-0.648 1.945,-1.347 2.693,-2.194 0.05,0.399 0.1,0.748 0.149,1.146 0.1,0.649 0.2,1.297 0.449,1.896 0.2,0.648 0.449,1.197 0.748,1.695 0.3,0.549 0.648,0.998 1.047,1.347 0.35,0.399 0.749,0.648 1.148,0.798 0.199,0.1 0.398,0.149 0.698,0.199 0.249,0.05 0.499,0.1 0.748,0.2 0.299,0 0.548,0.05 0.748,0.099 0.249,0.05 0.399,0.1 0.548,0.15 0.25,0.1 0.449,0.25 0.649,0.449 0.199,0.199 0.399,0.449 0.548,0.748 0.15,0.299 0.299,0.648 0.449,0.997 0.1,0.399 0.2,0.748 0.2,1.197l0.05 0 0 0.05 0.049 0 0.05 0 0 -0.05c0,-0.449 0.1,-0.798 0.2,-1.197 0.15,-0.349 0.299,-0.698 0.449,-0.997 0.199,-0.299 0.349,-0.549 0.598,-0.748 0.2,-0.199 0.349,-0.349 0.598,-0.449 0.15,-0.05 0.35,-0.1 0.549,-0.15 0.2,-0.049 0.449,-0.099 0.748,-0.099 0.249,-0.1 0.499,-0.15 0.748,-0.2 0.299,-0.05 0.499,-0.099 0.699,-0.199 0.398,-0.15 0.748,-0.399 1.146,-0.798 0.35,-0.349 0.748,-0.798 1.048,-1.347 0.299,-0.498 0.548,-1.047 0.748,-1.695 0.249,-0.599 0.349,-1.247 0.449,-1.896 0.049,-0.398 0.099,-0.747 0.149,-1.146 0.698,0.847 1.596,1.546 2.693,2.194 0.05,0.05 0.15,0.1 0.25,0.15 0.099,0.049 0.199,0.099 0.249,0.199 0.598,0.299 1.297,0.599 2.095,0.898 0.399,0.149 0.847,0.249 1.346,0.299 0.449,0.05 0.898,0.05 1.347,0 0.449,-0.1 0.848,-0.199 1.246,-0.349 0.399,-0.2 0.749,-0.399 0.998,-0.599 0.149,-0.149 0.299,-0.349 0.449,-0.498 0.1,-0.2 0.249,-0.399 0.448,-0.549 0.1,-0.199 0.25,-0.399 0.4,-0.549 0.099,-0.199 0.249,-0.299 0.349,-0.398 0.149,-0.1 0.299,-0.25 0.548,-0.3 0.2,-0.099 0.399,-0.199 0.698,-0.199 0.25,-0.05 0.499,-0.05 0.798,0 0.25,0 0.549,0.1 0.798,0.249l0 -0.05 0.05 0.05 0 -0.05 0.05 -0.05 -0.05 0c-0.249,-0.199 -0.449,-0.399 -0.598,-0.598 -0.2,-0.25 -0.299,-0.449 -0.399,-0.698 -0.1,-0.25 -0.15,-0.449 -0.2,-0.698 0,-0.25 0,-0.449 0.05,-0.649 0,-0.1 0.05,-0.299 0.15,-0.449 0.05,-0.199 0.149,-0.448 0.249,-0.648 0.1,-0.249 0.15,-0.449 0.249,-0.648 0.1,-0.249 0.15,-0.449 0.2,-0.649 0.1,-0.349 0.1,-0.698 0.05,-1.146 -0.05,-0.449 -0.15,-0.848 -0.349,-1.297 -0.15,-0.399 -0.399,-0.748 -0.649,-1.147 -0.299,-0.399 -0.598,-0.748 -0.947,-0.998 -0.05,-0.05 -0.1,-0.1 -0.15,-0.149 0.499,-0.25 0.998,-0.499 1.496,-0.798 0.15,-0.1 0.299,-0.2 0.449,-0.25l0.05 -0.049c0.15,-0.1 0.299,-0.2 0.449,-0.25 1.197,-0.698 2.294,-1.496 3.241,-2.393 0.599,-0.449 1.198,-1.048 1.646,-1.746 0.499,-0.649 0.898,-1.347 1.197,-2.095 0.299,-0.698 0.499,-1.446 0.599,-2.194 0.05,-0.748 0.05,-1.446 -0.1,-2.094 -0.05,-0.35 -0.2,-0.699 -0.349,-1.098 -0.15,-0.349 -0.3,-0.748 -0.449,-1.147 -0.15,-0.399 -0.349,-0.748 -0.449,-1.097 -0.15,-0.349 -0.249,-0.648 -0.299,-0.848 -0.05,-0.349 -0.1,-0.748 -0.05,-1.147 0.05,-0.399 0.199,-0.847 0.349,-1.247 0.2,-0.398 0.399,-0.797 0.698,-1.196 0.3,-0.399 0.649,-0.748 1.097,-1.048l0 -0.05 0.05 0 -0.099 -0.05 0 -0.099 -0.05 0.05 0 -0.05c-0.499,0.249 -0.948,0.349 -1.447,0.449 -0.498,0 -0.947,0 -1.396,0 -0.449,-0.1 -0.898,-0.2 -1.247,-0.35 -0.399,-0.149 -0.698,-0.348 -0.947,-0.598 -0.2,-0.15 -0.399,-0.399 -0.599,-0.648 -0.249,-0.3 -0.498,-0.649 -0.748,-0.998 -0.249,-0.299 -0.548,-0.598 -0.798,-0.947 -0.249,-0.349 -0.499,-0.599 -0.748,-0.848 -0.499,-0.449 -1.097,-0.798 -1.745,-1.097 -0.748,-0.299 -1.446,-0.499 -2.244,-0.599 -0.798,-0.149 -1.596,-0.149 -2.394,-0.049 -0.848,0.099 -1.646,0.299 -2.344,0.598 -0.649,0.199 -1.247,0.449 -1.746,0.698 -0.049,-0.898 -0.199,-1.745 -0.349,-2.593 -0.1,-0.698 -0.299,-1.347 -0.598,-2.045 -0.3,-0.648 -0.649,-1.247 -1.097,-1.795 -0.449,-0.549 -0.948,-1.048 -1.447,-1.446 -0.548,-0.4 -1.047,-0.699 -1.596,-0.848 -0.299,-0.1 -0.648,-0.2 -0.997,-0.25 -0.349,-0.05 -0.698,-0.099 -1.097,-0.149 -0.349,-0.05 -0.748,-0.1 -1.097,-0.15 -0.3,-0.05 -0.549,-0.1 -0.748,-0.149 -0.3,-0.1 -0.599,-0.25 -0.848,-0.449 -0.299,-0.25 -0.549,-0.499 -0.798,-0.848 -0.249,-0.299 -0.449,-0.649 -0.648,-1.047 -0.15,-0.399 -0.25,-0.848 -0.3,-1.297l0 -0.05 -0.099 0.05 -0.05 -0.05 0 0.05c-0.05,0.449 -0.15,0.898 -0.35,1.297 -0.199,0.398 -0.398,0.748 -0.598,1.047 -0.249,0.349 -0.548,0.598 -0.798,0.848 -0.299,0.199 -0.598,0.349 -0.897,0.449 -0.2,0.049 -0.449,0.099 -0.748,0.149 -0.35,0.05 -0.699,0.1 -1.098,0.15 -0.349,0.05 -0.698,0.099 -1.047,0.149 -0.399,0.05 -0.748,0.15 -0.997,0.25 -0.549,0.149 -1.098,0.448 -1.596,0.848 -0.549,0.398 -1.048,0.897 -1.496,1.446 -0.399,0.548 -0.798,1.147 -1.048,1.795 -0.299,0.698 -0.498,1.347 -0.598,2.045 -0.2,0.948 -0.3,1.795 -0.349,2.593 -0.549,-0.249 -1.097,-0.499 -1.746,-0.698 -0.748,-0.299 -1.546,-0.499 -2.344,-0.598 -0.848,-0.1 -1.645,-0.1 -2.394,0.049 -0.797,0.1 -1.546,0.3 -2.244,0.599 -0.698,0.299 -1.296,0.648 -1.745,1.097 -0.299,0.249 -0.549,0.499 -0.798,0.848 -0.249,0.349 -0.499,0.648 -0.748,0.947 -0.299,0.349 -0.499,0.698 -0.748,0.998 -0.2,0.249 -0.399,0.498 -0.599,0.648 -0.249,0.25 -0.598,0.449 -0.947,0.598 -0.399,0.15 -0.798,0.25 -1.247,0.35 -0.449,0 -0.898,0 -1.396,0 -0.549,-0.1 -0.998,-0.2 -1.447,-0.449zm1.347 0.897l0 0c0.498,0.1 1.097,0.15 1.646,0.15 0.698,0 1.396,-0.05 1.994,-0.199 0.699,-0.1 1.297,-0.3 1.796,-0.549 0.548,-0.249 0.947,-0.499 1.346,-0.848 0.2,-0.199 0.399,-0.449 0.698,-0.798 0.3,-0.299 0.549,-0.648 0.798,-0.997 0.25,-0.349 0.499,-0.649 0.748,-0.948 0.25,-0.349 0.499,-0.598 0.699,-0.748 0.548,-0.499 1.247,-0.848 2.144,-0.997 0.898,-0.15 1.895,-0.05 3.042,0.299 0.798,0.199 1.496,0.449 2.145,0.698 0.099,0.05 0.199,0.1 0.249,0.1 0.549,0.249 1.047,0.449 1.496,0.698l0 0.05c0.2,0.05 0.349,0.15 0.499,0.249 0.149,0.05 0.299,0.15 0.499,0.25 0.399,0.249 0.848,0.499 1.246,0.798 2.644,1.994 4.539,4.488 5.636,7.53 0.648,1.646 0.947,3.292 0.947,4.838 -0.049,0.349 -0.049,0.698 -0.099,1.097 -0.1,0.947 -0.3,1.845 -0.649,2.743 -0.149,0.399 -0.299,0.748 -0.498,1.097 -0.25,-0.1 -0.549,-0.249 -0.848,-0.399 -0.15,-0.1 -0.249,-0.15 -0.399,-0.2 -1.746,-0.847 -3.74,-1.895 -5.935,-3.091 -2.294,-1.197 -4.688,-2.494 -7.131,-3.89l-0.25 -0.15 0.1 0.1 -0.15 0 0.25 0.099 0 0.05c2.443,1.447 4.738,2.843 6.932,4.189 2.144,1.347 4.04,2.544 5.635,3.641 0.25,0.15 0.449,0.299 0.699,0.449 0.149,0.099 0.299,0.199 0.498,0.299 -0.947,1.446 -2.094,2.593 -3.491,3.441 -0.249,0.15 -0.449,0.249 -0.648,0.399 -0.1,0.05 -0.2,0.1 -0.299,0.15 -0.2,0.1 -0.399,0.199 -0.649,0.249 -0.997,0.449 -2.094,0.798 -3.291,0.997 -3.042,0.499 -5.985,0.2 -8.828,-0.947 -0.099,0 -0.149,-0.05 -0.249,-0.1 -0.099,0 -0.199,-0.05 -0.249,-0.099 -0.449,-0.2 -0.898,-0.449 -1.397,-0.699 -0.099,-0.099 -0.249,-0.199 -0.398,-0.249l-0.05 0c-0.15,-0.15 -0.3,-0.249 -0.449,-0.299 -1.197,-0.798 -2.294,-1.696 -3.242,-2.693 -0.848,-0.798 -1.446,-1.646 -1.795,-2.494 -0.299,-0.848 -0.349,-1.646 -0.2,-2.344 0.05,-0.299 0.15,-0.598 0.3,-0.947 0.149,-0.399 0.299,-0.798 0.448,-1.197 0.2,-0.349 0.35,-0.748 0.499,-1.147 0.15,-0.399 0.249,-0.698 0.299,-0.998 0.1,-0.498 0.15,-0.997 0.1,-1.596 -0.05,-0.598 -0.199,-1.147 -0.399,-1.795 -0.199,-0.598 -0.499,-1.247 -0.848,-1.895 -0.299,-0.449 -0.598,-0.898 -0.947,-1.347zm17.355 -5.186l0 0c0.05,-0.848 0.249,-1.795 0.499,-2.793 0.199,-1.047 0.598,-1.895 1.097,-2.493 0.548,-0.599 1.097,-0.998 1.696,-1.197 0.249,-0.1 0.548,-0.15 0.897,-0.2 0.299,-0.05 0.698,-0.1 1.047,-0.149 0.4,-0.05 0.748,-0.1 1.148,-0.15 0.349,-0.05 0.648,-0.15 0.897,-0.199 0.399,-0.15 0.798,-0.35 1.247,-0.649 0.399,-0.299 0.798,-0.648 1.197,-1.097 0.349,-0.449 0.698,-0.948 1.047,-1.496 0.199,-0.399 0.449,-0.848 0.599,-1.297 0.199,0.449 0.399,0.898 0.648,1.297 0.299,0.548 0.648,1.047 1.047,1.496 0.349,0.449 0.748,0.798 1.197,1.097 0.399,0.299 0.798,0.499 1.197,0.649 0.299,0.049 0.599,0.149 0.947,0.199 0.4,0.05 0.749,0.1 1.098,0.15 0.399,0.049 0.748,0.099 1.047,0.149 0.399,0.05 0.698,0.1 0.898,0.2 0.648,0.199 1.197,0.598 1.695,1.197 0.549,0.598 0.898,1.446 1.147,2.493 0.25,0.848 0.449,1.795 0.549,2.793 -0.598,0.249 -1.147,0.549 -1.646,0.848 -0.149,0.05 -0.299,0.149 -0.498,0.299 -0.15,0.05 -0.3,0.149 -0.449,0.249 -3.841,2.195 -6.434,5.187 -7.83,9.027 -0.299,0.648 -0.499,1.347 -0.648,1.995 -0.05,-1.446 -0.1,-2.992 -0.2,-4.738 -0.05,-2.244 -0.1,-4.638 -0.15,-7.131l0 -0.05 0 -0.2 -0.049 0.1 0 -0.1 0 0.2 -0.05 0.05c0,2.493 -0.05,4.887 -0.1,7.131 -0.1,1.746 -0.15,3.292 -0.25,4.738 -0.149,-0.648 -0.348,-1.347 -0.598,-1.995 -1.396,-3.84 -4.039,-6.832 -7.83,-9.027 -0.149,-0.1 -0.299,-0.199 -0.449,-0.249 -0.199,-0.15 -0.349,-0.249 -0.498,-0.299 -0.499,-0.299 -1.048,-0.549 -1.596,-0.848zm20.347 1.596l0 0c0.15,-0.1 0.3,-0.2 0.449,-0.25l0.05 0c0.15,-0.099 0.299,-0.199 0.449,-0.249l0 -0.05c0.499,-0.249 0.997,-0.449 1.546,-0.698 0.1,0 0.2,-0.05 0.249,-0.1 0.648,-0.249 1.347,-0.499 2.095,-0.698 1.147,-0.349 2.194,-0.449 3.092,-0.299 0.848,0.149 1.596,0.498 2.144,0.997 0.2,0.15 0.399,0.399 0.649,0.748 0.249,0.299 0.548,0.599 0.798,0.948 0.249,0.349 0.498,0.698 0.798,0.997 0.249,0.349 0.498,0.599 0.698,0.798 0.349,0.349 0.798,0.599 1.346,0.848 0.499,0.249 1.098,0.449 1.746,0.549 0.648,0.149 1.346,0.199 2.044,0.199 0.549,0 1.098,-0.05 1.646,-0.15 -0.349,0.449 -0.648,0.898 -0.947,1.347 -0.349,0.648 -0.649,1.297 -0.848,1.895 -0.2,0.648 -0.349,1.197 -0.399,1.795 -0.05,0.599 -0.05,1.098 0.05,1.596 0.099,0.3 0.199,0.599 0.349,0.998 0.149,0.399 0.299,0.798 0.448,1.147 0.2,0.399 0.35,0.798 0.449,1.197 0.15,0.349 0.25,0.648 0.35,0.947 0.149,0.698 0.049,1.496 -0.25,2.344 -0.299,0.848 -0.897,1.696 -1.795,2.494 -0.898,0.997 -1.995,1.895 -3.192,2.693l-0.05 0c-0.149,0.05 -0.299,0.149 -0.449,0.299 -0.149,0.05 -0.299,0.15 -0.448,0.249 -0.449,0.25 -0.898,0.499 -1.347,0.699 -0.1,0.049 -0.199,0.099 -0.249,0.099 -0.1,0.05 -0.2,0.1 -0.25,0.1 -2.892,1.147 -5.835,1.446 -8.827,0.947 -1.197,-0.199 -2.294,-0.548 -3.341,-0.947 -0.2,-0.1 -0.399,-0.199 -0.599,-0.299 -0.099,-0.05 -0.249,-0.1 -0.299,-0.15 -0.249,-0.15 -0.449,-0.249 -0.698,-0.399 -1.347,-0.848 -2.494,-1.995 -3.441,-3.441 0.149,-0.1 0.349,-0.2 0.498,-0.299 0.2,-0.15 0.449,-0.299 0.649,-0.449 1.646,-1.097 3.541,-2.294 5.685,-3.641 2.145,-1.346 4.489,-2.742 6.882,-4.189l0.05 -0.05 0.25 -0.099 -0.15 0 0.1 -0.1 -0.299 0.15c-2.444,1.396 -4.788,2.693 -7.082,3.89 -2.244,1.196 -4.239,2.244 -5.935,3.091 -0.15,0.05 -0.299,0.1 -0.449,0.2 -0.249,0.15 -0.548,0.299 -0.798,0.399 -0.199,-0.349 -0.399,-0.698 -0.498,-1.097 -0.349,-0.898 -0.599,-1.796 -0.699,-2.743 0,-0.349 -0.05,-0.698 -0.05,-1.097 0,-1.546 0.3,-3.192 0.948,-4.838 1.097,-3.042 2.992,-5.536 5.586,-7.53 0.448,-0.299 0.848,-0.549 1.296,-0.798zm6.384 29.025l0 0 0.149 0.049 -0.099 -0.049 0.099 0.049 -0.149 -0.099c-1.397,-0.848 -2.693,-1.596 -3.94,-2.344 -1.147,-0.748 -2.194,-1.447 -3.092,-2.045 0.648,0.2 1.347,0.349 2.095,0.499 3.391,0.548 6.732,0.099 9.974,-1.397 0.1,0.1 0.199,0.2 0.349,0.35 0.449,0.448 0.798,0.897 0.997,1.396 0.15,0.449 0.2,0.947 0.1,1.346 0,0.15 -0.1,0.35 -0.15,0.549 -0.099,0.199 -0.199,0.399 -0.249,0.648 -0.1,0.2 -0.199,0.449 -0.299,0.648 -0.05,0.2 -0.15,0.4 -0.15,0.599 -0.1,0.25 -0.1,0.549 -0.05,0.848 0,0.349 0.1,0.698 0.2,1.047 0.15,0.349 0.299,0.698 0.499,1.048 0.149,0.249 0.349,0.498 0.548,0.748 -0.349,-0.05 -0.648,-0.05 -0.947,-0.05 -0.399,0 -0.798,0.05 -1.147,0.099 -0.349,0.1 -0.699,0.2 -0.998,0.3 -0.299,0.149 -0.549,0.299 -0.748,0.498 -0.149,0.15 -0.299,0.299 -0.399,0.449 -0.199,0.2 -0.349,0.349 -0.449,0.549 -0.149,0.199 -0.299,0.399 -0.448,0.548 -0.15,0.2 -0.25,0.349 -0.399,0.449 -0.3,0.25 -0.699,0.449 -1.197,0.549 -0.499,0.1 -1.098,0.05 -1.746,-0.15 -0.848,-0.299 -1.546,-0.549 -2.194,-0.897 -0.1,0 -0.2,-0.05 -0.25,-0.1l-0.049 -0.05c-0.05,-0.05 -0.15,-0.1 -0.25,-0.1 -0.249,-0.149 -0.499,-0.299 -0.698,-0.449 -0.798,-0.598 -1.496,-1.296 -2.045,-2.045 0.05,-0.648 0.1,-1.196 0.1,-1.745 0,-0.1 0,-0.249 0,-0.449 0,-0.149 0,-0.299 0,-0.449 0,-1.745 -0.2,-3.391 -0.598,-4.887 0.099,0 0.149,0.05 0.199,0.1 0.997,0.449 2.095,1.047 3.391,1.745 1.297,0.649 2.643,1.397 3.99,2.195l0.05 0zm-14.862 -12.269l0 0 0.05 -0.049 0 0.049c-0.05,0 -0.05,0 -0.05,0zm-0.997 -0.049l0 0 0.099 0.049c-0.049,0 -0.099,0 -0.099,0 0,-0.049 0,-0.049 0,-0.049zm0.898 0.997l0 0c0.199,0.05 0.349,0.05 0.498,0.05 0.1,0.299 0.249,0.598 0.399,0.897 0.1,0.2 0.2,0.399 0.349,0.649 0.1,0.199 0.25,0.399 0.349,0.598 1.297,1.895 2.943,3.342 5.137,4.239 0.05,0.15 0.05,0.299 0.15,0.499 0.05,0 0.05,0.05 0.05,0.15 0.399,1.196 0.698,2.493 0.797,3.89 0.05,0.398 0.05,0.798 0.05,1.196 0,0.15 0,0.3 0,0.449 0,0.15 0,0.299 0,0.449 -0.05,0.449 -0.05,0.948 -0.149,1.446 0,0.15 0,0.299 -0.05,0.449 -0.05,0.499 -0.15,0.998 -0.199,1.546 -0.2,0.948 -0.449,1.696 -0.848,2.294 -0.35,0.549 -0.748,0.948 -1.197,1.098 -0.15,0.099 -0.349,0.149 -0.599,0.199 -0.249,0.05 -0.498,0.1 -0.748,0.149 -0.299,0 -0.548,0.05 -0.798,0.15 -0.249,0.05 -0.498,0.1 -0.648,0.2 -0.299,0.099 -0.598,0.299 -0.898,0.548 -0.299,0.3 -0.548,0.648 -0.848,1.048 -0.249,0.398 -0.498,0.847 -0.747,1.396 -0.15,0.349 -0.3,0.798 -0.4,1.197 -0.149,-0.399 -0.299,-0.848 -0.449,-1.197 -0.249,-0.549 -0.448,-0.998 -0.747,-1.396 -0.25,-0.4 -0.549,-0.748 -0.848,-1.048 -0.3,-0.249 -0.599,-0.449 -0.898,-0.548 -0.15,-0.1 -0.399,-0.15 -0.648,-0.2 -0.25,-0.1 -0.499,-0.15 -0.748,-0.15 -0.3,-0.049 -0.549,-0.099 -0.798,-0.149 -0.25,-0.05 -0.449,-0.1 -0.599,-0.199 -0.449,-0.15 -0.847,-0.549 -1.197,-1.098 -0.399,-0.598 -0.648,-1.346 -0.798,-2.294 -0.149,-0.498 -0.199,-0.997 -0.299,-1.496 0,-0.2 0,-0.349 -0.05,-0.449 -0.049,-0.499 -0.099,-0.997 -0.099,-1.496 0,-0.15 0,-0.299 0,-0.449 0,-0.149 0,-0.299 0,-0.449 0,-0.398 0,-0.798 0,-1.247 0.149,-1.346 0.398,-2.643 0.798,-3.839 0.049,-0.05 0.049,-0.1 0.099,-0.2 0,-0.15 0.05,-0.299 0.15,-0.449 2.144,-0.897 3.84,-2.344 5.087,-4.239 0.149,-0.199 0.249,-0.399 0.399,-0.598 0.099,-0.25 0.199,-0.449 0.349,-0.649 0.149,-0.299 0.249,-0.598 0.399,-0.897 0.149,0 0.299,-0.05 0.498,-0.05 0,0.399 0,0.748 0.05,1.147 0.05,1.596 0.1,3.441 0.2,5.536 0.05,2.094 0.05,4.339 0.1,6.633l0 0.05 0 0.199 0.049 -0.1 0 0.1 0 -0.249c0,-2.294 0.05,-4.539 0.1,-6.633 0.1,-2.095 0.15,-3.94 0.2,-5.536 0.05,-0.399 0.05,-0.748 0.05,-1.147zm-8.279 7.381l0 0c0.05,-0.05 0.1,-0.1 0.149,-0.1 -0.348,1.496 -0.548,3.142 -0.548,4.887 0,0.15 0,0.3 0,0.449 0,0.15 0,0.299 0,0.449 0,0.599 0,1.147 0.05,1.745 -0.549,0.749 -1.197,1.447 -1.995,2.045 -0.199,0.15 -0.449,0.3 -0.698,0.449 -0.1,0 -0.2,0.05 -0.299,0.1l0 0.05c-0.1,0.05 -0.2,0.1 -0.25,0.1 -0.648,0.348 -1.396,0.598 -2.244,0.897 -0.648,0.2 -1.197,0.25 -1.696,0.15 -0.548,-0.1 -0.947,-0.299 -1.246,-0.549 -0.1,-0.1 -0.25,-0.249 -0.35,-0.449 -0.149,-0.149 -0.299,-0.349 -0.448,-0.548 -0.15,-0.2 -0.299,-0.349 -0.449,-0.549 -0.15,-0.15 -0.299,-0.299 -0.399,-0.449 -0.2,-0.199 -0.449,-0.349 -0.748,-0.498 -0.299,-0.1 -0.649,-0.2 -0.997,-0.3 -0.4,-0.049 -0.749,-0.099 -1.148,-0.099 -0.349,0 -0.648,0 -0.947,0.05 0.199,-0.25 0.349,-0.499 0.548,-0.748 0.2,-0.35 0.3,-0.699 0.449,-1.048 0.1,-0.349 0.25,-0.698 0.25,-1.047 0.049,-0.299 0,-0.598 -0.05,-0.848 -0.05,-0.199 -0.1,-0.399 -0.2,-0.599 -0.05,-0.199 -0.149,-0.448 -0.249,-0.648 -0.1,-0.249 -0.2,-0.449 -0.249,-0.648 -0.1,-0.199 -0.15,-0.399 -0.2,-0.549 -0.05,-0.399 -0.05,-0.897 0.15,-1.346 0.149,-0.499 0.498,-0.948 0.997,-1.396 0.1,-0.15 0.2,-0.25 0.349,-0.35 3.242,1.496 6.583,1.945 9.974,1.397 0.699,-0.15 1.397,-0.299 2.095,-0.499 -0.898,0.598 -1.945,1.297 -3.142,2.045 -1.197,0.748 -2.543,1.496 -3.89,2.344l-0.05 0 -0.1 0.099 0.05 -0.049 -0.05 0.049 0.15 -0.049c1.347,-0.798 2.743,-1.546 4.04,-2.195 1.246,-0.698 2.394,-1.296 3.391,-1.745z"/>
   </g>
   <path class="fil2" d="M121.102 35.756c0,-1.584 -0.21,-2.976 -0.623,-4.182 -0.415,-1.206 -0.985,-2.214 -1.711,-3.024 -0.732,-0.81 -1.59,-1.422 -2.579,-1.836 -0.985,-0.414 -2.046,-0.624 -3.187,-0.624 -1.133,0 -2.202,0.21 -3.185,0.624 -0.991,0.414 -1.849,1.026 -2.581,1.836 -0.725,0.81 -1.296,1.818 -1.71,3.024 -0.414,1.206 -0.624,2.598 -0.624,4.182 0,1.584 0.21,2.97 0.631,4.176 0.419,1.2 0.995,2.202 1.721,3.012 0.733,0.81 1.591,1.416 2.58,1.824 0.984,0.414 2.052,0.618 3.204,0.618 1.135,0 2.196,-0.204 3.168,-0.618 0.978,-0.408 1.83,-1.014 2.562,-1.824 0.726,-0.81 1.296,-1.812 1.711,-3.012 0.413,-1.206 0.623,-2.592 0.623,-4.176zm2.844 0c0,1.782 -0.257,3.414 -0.767,4.908 -0.51,1.488 -1.243,2.772 -2.196,3.846 -0.955,1.08 -2.101,1.92 -3.439,2.526 -1.344,0.606 -2.844,0.906 -4.506,0.906 -1.722,0 -3.257,-0.3 -4.619,-0.906 -1.357,-0.606 -2.509,-1.446 -3.451,-2.526 -0.941,-1.074 -1.661,-2.358 -2.16,-3.846 -0.498,-1.494 -0.75,-3.126 -0.75,-4.908 0,-1.794 0.258,-3.438 0.775,-4.932 0.515,-1.494 1.247,-2.784 2.196,-3.864 0.947,-1.074 2.094,-1.914 3.443,-2.52 1.345,-0.606 2.857,-0.906 4.53,-0.906 1.711,0 3.24,0.3 4.591,0.906 1.355,0.606 2.501,1.446 3.443,2.52 0.942,1.08 1.662,2.37 2.16,3.864 0.498,1.494 0.75,3.138 0.75,4.932z"/>
   <path id="_1_0" class="fil2" d="M138.029 33.038l-0.21 0c-0.642,0 -1.278,0.06 -1.896,0.174 -0.624,0.12 -1.206,0.3 -1.752,0.54 -0.546,0.24 -1.038,0.534 -1.476,0.882 -0.438,0.354 -0.804,0.768 -1.098,1.248l0 11.628 -2.736 0 0 -16.704 2.118 0 0.528 2.652 0.054 0c0.27,-0.432 0.6,-0.834 0.996,-1.206 0.39,-0.378 0.834,-0.702 1.326,-0.984 0.492,-0.282 1.032,-0.498 1.614,-0.66 0.588,-0.156 1.206,-0.234 1.848,-0.234 0.12,0 0.24,0 0.36,0.006 0.126,0.006 0.234,0.018 0.324,0.03l0 2.628z"/>
   <path id="_2_1" class="fil2" d="M148.085 30.374c0.81,0 1.584,0.084 2.322,0.252 0.738,0.168 1.368,0.402 1.896,0.708l0 2.244c-0.738,-0.276 -1.416,-0.486 -2.04,-0.624 -0.618,-0.138 -1.254,-0.204 -1.896,-0.204 -0.684,0 -1.356,0.114 -2.022,0.336 -0.666,0.222 -1.266,0.588 -1.794,1.098 -0.528,0.51 -0.954,1.182 -1.272,2.022 -0.324,0.834 -0.486,1.878 -0.486,3.12 0,0.9 0.12,1.734 0.36,2.496 0.24,0.762 0.6,1.422 1.074,1.98 0.474,0.552 1.068,0.99 1.782,1.296 0.714,0.312 1.542,0.468 2.478,0.468 0.684,0 1.368,-0.072 2.058,-0.216 0.69,-0.144 1.368,-0.348 2.022,-0.612l0 2.256c-0.198,0.12 -0.462,0.234 -0.78,0.354 -0.324,0.114 -0.678,0.216 -1.068,0.306 -0.384,0.084 -0.792,0.156 -1.23,0.21 -0.432,0.054 -0.864,0.078 -1.302,0.078 -1.122,0 -2.184,-0.168 -3.186,-0.51 -1.002,-0.336 -1.878,-0.858 -2.628,-1.56 -0.75,-0.708 -1.344,-1.596 -1.776,-2.676 -0.432,-1.074 -0.648,-2.352 -0.648,-3.828 0,-1.098 0.114,-2.088 0.342,-2.97 0.228,-0.876 0.54,-1.65 0.942,-2.316 0.396,-0.666 0.858,-1.236 1.392,-1.704 0.534,-0.468 1.104,-0.852 1.704,-1.152 0.606,-0.3 1.23,-0.516 1.872,-0.648 0.648,-0.138 1.272,-0.204 1.884,-0.204z"/>
   <path id="_3_2" class="fil2" d="M159.623 33.098l0.054 0c0.306,-0.384 0.642,-0.744 1.02,-1.08 0.372,-0.336 0.786,-0.624 1.248,-0.864 0.456,-0.24 0.948,-0.426 1.47,-0.57 0.528,-0.138 1.098,-0.21 1.71,-0.21 0.63,0 1.26,0.084 1.896,0.252 0.63,0.174 1.218,0.474 1.758,0.906 0.534,0.438 0.978,1.038 1.314,1.812 0.342,0.774 0.51,1.77 0.51,2.988l0 11.178 -2.736 0 0 -10.74c0,-1.344 -0.252,-2.358 -0.762,-3.036 -0.51,-0.678 -1.344,-1.02 -2.502,-1.02 -0.96,0 -1.872,0.258 -2.736,0.78 -0.864,0.522 -1.614,1.242 -2.244,2.154l0 11.862 -2.736 0 0 -25.452 2.736 0 0 11.04z"/>
   <path id="_4_3" class="fil2" d="M176.045 47.51l0 -16.704 2.736 0 0 16.704 -2.736 0zm-0.072 -20.592l0 -3.024 2.736 0 0 3.024 -2.736 0z"/>
   <path id="_5_4" class="fil2" d="M186.089 39.344c0,0.96 0.108,1.83 0.324,2.61 0.222,0.78 0.534,1.44 0.942,1.986 0.414,0.546 0.918,0.966 1.518,1.26 0.6,0.294 1.29,0.438 2.064,0.438 0.576,0 1.098,-0.078 1.566,-0.228 0.468,-0.156 0.888,-0.348 1.26,-0.582 0.372,-0.234 0.69,-0.48 0.954,-0.744 0.264,-0.264 0.474,-0.51 0.624,-0.732l0 -8.742c-0.564,-0.57 -1.218,-1.032 -1.956,-1.38 -0.738,-0.342 -1.536,-0.516 -2.394,-0.516 -0.522,0 -1.062,0.096 -1.632,0.288 -0.57,0.198 -1.098,0.546 -1.584,1.05 -0.492,0.504 -0.894,1.182 -1.212,2.028 -0.318,0.852 -0.474,1.938 -0.474,3.264zm-2.844 0.024c0,-1.158 0.114,-2.184 0.342,-3.084 0.228,-0.894 0.534,-1.674 0.906,-2.346 0.378,-0.666 0.816,-1.224 1.32,-1.674 0.51,-0.45 1.032,-0.816 1.572,-1.098 0.54,-0.282 1.086,-0.486 1.644,-0.606 0.558,-0.126 1.08,-0.186 1.578,-0.186 1.02,0 1.908,0.168 2.658,0.51 0.75,0.342 1.422,0.84 2.022,1.494l0.054 0 0 -10.32 2.736 0 0 25.452 -2.064 0 -0.564 -1.866 -0.072 0c-0.21,0.27 -0.462,0.546 -0.738,0.822 -0.282,0.276 -0.618,0.522 -0.996,0.744 -0.384,0.222 -0.822,0.402 -1.32,0.534 -0.498,0.132 -1.08,0.198 -1.734,0.198 -0.918,0 -1.818,-0.156 -2.694,-0.468 -0.882,-0.306 -1.668,-0.804 -2.352,-1.488 -0.684,-0.69 -1.242,-1.572 -1.662,-2.658 -0.426,-1.08 -0.636,-2.4 -0.636,-3.96z"/>
   <path id="_6_5" class="fil2" d="M216.329 47.51l-1.32 0 -5.916 -14.04c-0.816,-1.932 -1.638,-4.032 -2.46,-6.306l-0.138 0c0.162,3.27 0.246,6.264 0.246,8.976l0 11.37 -2.88 0 0 -23.508 4.134 0 5.538 13.302c0.63,1.518 1.332,3.354 2.094,5.496l0.084 0c0.846,-2.376 1.542,-4.212 2.094,-5.496l5.538 -13.302 4.134 0 0 23.508 -2.88 0 0 -11.37c0,-2.658 0.084,-5.652 0.246,-8.976l-0.138 0c-0.87,2.4 -1.686,4.506 -2.46,6.306l-5.916 14.04z"/>
   <path id="_7_6" class="fil2" d="M242.879 45.662l-0.066 0c-0.228,0.282 -0.51,0.564 -0.846,0.84 -0.342,0.27 -0.738,0.516 -1.182,0.732 -0.45,0.222 -0.936,0.39 -1.464,0.516 -0.528,0.126 -1.092,0.192 -1.692,0.192 -0.81,0 -1.554,-0.12 -2.226,-0.36 -0.678,-0.24 -1.26,-0.594 -1.746,-1.056 -0.486,-0.462 -0.864,-1.026 -1.134,-1.692 -0.27,-0.666 -0.408,-1.422 -0.408,-2.262 0,-0.834 0.15,-1.578 0.45,-2.232 0.3,-0.654 0.72,-1.212 1.26,-1.668 0.54,-0.456 1.188,-0.81 1.944,-1.056 0.756,-0.246 1.596,-0.366 2.508,-0.366 0.87,0.012 1.674,0.09 2.418,0.228 0.738,0.138 1.392,0.318 1.968,0.528l0.072 0 0 -1.158c0,-0.462 -0.03,-0.864 -0.09,-1.218 -0.054,-0.348 -0.156,-0.66 -0.294,-0.93 -0.306,-0.564 -0.792,-1.026 -1.464,-1.398 -0.666,-0.366 -1.566,-0.552 -2.706,-0.552 -0.84,0 -1.638,0.078 -2.382,0.228 -0.744,0.156 -1.482,0.366 -2.22,0.636l0 -2.262c0.276,-0.144 0.612,-0.27 0.99,-0.396 0.384,-0.12 0.786,-0.228 1.206,-0.312 0.42,-0.09 0.864,-0.156 1.338,-0.198 0.468,-0.048 0.936,-0.072 1.404,-0.072 1.686,0 3.066,0.3 4.14,0.894 1.074,0.6 1.848,1.392 2.322,2.376 0.174,0.372 0.3,0.786 0.378,1.236 0.078,0.45 0.114,0.948 0.114,1.488l0 11.142 -2.292 0 -0.3 -1.848zm-0.144 -5.49c-0.504,-0.144 -1.098,-0.276 -1.788,-0.408 -0.69,-0.126 -1.452,-0.198 -2.286,-0.21 -1.158,0 -2.064,0.246 -2.718,0.738 -0.654,0.498 -0.984,1.254 -0.984,2.28 0,0.516 0.084,0.966 0.246,1.356 0.162,0.39 0.39,0.708 0.678,0.96 0.282,0.252 0.624,0.444 1.014,0.564 0.396,0.126 0.81,0.186 1.254,0.186 0.588,0 1.134,-0.084 1.638,-0.258 0.498,-0.168 0.948,-0.372 1.338,-0.606 0.396,-0.234 0.726,-0.468 1.002,-0.708 0.276,-0.234 0.48,-0.414 0.606,-0.546l0 -3.348z"/>
   <path id="_8_7" class="fil2" d="M253.355 33.128l0.048 0c0.306,-0.39 0.642,-0.744 1.014,-1.08 0.366,-0.33 0.78,-0.624 1.242,-0.876 0.456,-0.252 0.954,-0.45 1.5,-0.588 0.546,-0.138 1.14,-0.21 1.788,-0.21 0.762,0 1.476,0.108 2.142,0.318 0.672,0.21 1.248,0.552 1.74,1.02 0.492,0.468 0.882,1.08 1.17,1.836 0.288,0.756 0.432,1.68 0.432,2.784l0 11.178 -2.736 0 0 -10.74c0,-1.44 -0.276,-2.472 -0.834,-3.108 -0.552,-0.63 -1.362,-0.948 -2.43,-0.948 -0.936,0 -1.842,0.258 -2.718,0.78 -0.876,0.522 -1.632,1.236 -2.262,2.148l0 11.868 -2.736 0 0 -16.704 2.112 0 0.528 2.322z"/>
   <path id="_9_8" class="fil2" d="M269.879 47.51l0 -16.704 2.736 0 0 16.704 -2.736 0zm-0.072 -20.592l0 -3.024 2.736 0 0 3.024 -2.736 0z"/>
   <path id="_10_9" class="fil2" d="M287.843 45.662l-0.066 0c-0.228,0.282 -0.51,0.564 -0.846,0.84 -0.342,0.27 -0.738,0.516 -1.182,0.732 -0.45,0.222 -0.936,0.39 -1.464,0.516 -0.528,0.126 -1.092,0.192 -1.692,0.192 -0.81,0 -1.554,-0.12 -2.226,-0.36 -0.678,-0.24 -1.26,-0.594 -1.746,-1.056 -0.486,-0.462 -0.864,-1.026 -1.134,-1.692 -0.27,-0.666 -0.408,-1.422 -0.408,-2.262 0,-0.834 0.15,-1.578 0.45,-2.232 0.3,-0.654 0.72,-1.212 1.26,-1.668 0.54,-0.456 1.188,-0.81 1.944,-1.056 0.756,-0.246 1.596,-0.366 2.508,-0.366 0.87,0.012 1.674,0.09 2.418,0.228 0.738,0.138 1.392,0.318 1.968,0.528l0.072 0 0 -1.158c0,-0.462 -0.03,-0.864 -0.09,-1.218 -0.054,-0.348 -0.156,-0.66 -0.294,-0.93 -0.306,-0.564 -0.792,-1.026 -1.464,-1.398 -0.666,-0.366 -1.566,-0.552 -2.706,-0.552 -0.84,0 -1.638,0.078 -2.382,0.228 -0.744,0.156 -1.482,0.366 -2.22,0.636l0 -2.262c0.276,-0.144 0.612,-0.27 0.99,-0.396 0.384,-0.12 0.786,-0.228 1.206,-0.312 0.42,-0.09 0.864,-0.156 1.338,-0.198 0.468,-0.048 0.936,-0.072 1.404,-0.072 1.686,0 3.066,0.3 4.14,0.894 1.074,0.6 1.848,1.392 2.322,2.376 0.174,0.372 0.3,0.786 0.378,1.236 0.078,0.45 0.114,0.948 0.114,1.488l0 11.142 -2.292 0 -0.3 -1.848zm-0.144 -5.49c-0.504,-0.144 -1.098,-0.276 -1.788,-0.408 -0.69,-0.126 -1.452,-0.198 -2.286,-0.21 -1.158,0 -2.064,0.246 -2.718,0.738 -0.654,0.498 -0.984,1.254 -0.984,2.28 0,0.516 0.084,0.966 0.246,1.356 0.162,0.39 0.39,0.708 0.678,0.96 0.282,0.252 0.624,0.444 1.014,0.564 0.396,0.126 0.81,0.186 1.254,0.186 0.588,0 1.134,-0.084 1.638,-0.258 0.498,-0.168 0.948,-0.372 1.338,-0.606 0.396,-0.234 0.726,-0.468 1.002,-0.708 0.276,-0.234 0.48,-0.414 0.606,-0.546l0 -3.348z"/>
  </g>
 </g>
</svg>
