<?xml version="1.0" encoding="UTF-8"?>
<!DOCTYPE svg PUBLIC "-//W3C//DTD SVG 1.1//EN" "http://www.w3.org/Graphics/SVG/1.1/DTD/svg11.dtd">
<!-- Creator: CorelDRAW -->
<svg xmlns="http://www.w3.org/2000/svg" xml:space="preserve" width="300px" height="80px" version="1.1" style="shape-rendering:geometricPrecision; text-rendering:geometricPrecision; image-rendering:optimizeQuality; fill-rule:evenodd; clip-rule:evenodd"
viewBox="0 0 300 80"
 xmlns:xlink="http://www.w3.org/1999/xlink"
 xmlns:xodm="http://www.corel.com/coreldraw/odm/2003">
 <defs>
  <style type="text/css">
   <![CDATA[
    .fil0 {fill:black;fill-rule:nonzero}
   ]]>
  </style>
 </defs>
 <g id="Livello_x0020_1">
  <metadata id="CorelCorpID_0Corel-Layer"/>
  <g id="_2318805618608">
   <g>
    <path class="fil0" d="M114.19 37.241l-1.212 0.813c-0.057,0.042 -0.107,0.078 -0.157,0.1 -0.05,0.021 -0.093,0.028 -0.135,0.028 -0.122,0 -0.229,-0.064 -0.321,-0.2 -0.093,-0.128 -0.136,-0.306 -0.136,-0.534 0,-0.343 0.121,-0.842 0.378,-1.49 0.25,-0.649 0.599,-1.376 1.062,-2.189 1.027,-1.783 2.211,-3.166 3.537,-4.157 1.333,-0.991 2.68,-1.482 4.042,-1.482 1.29,0 2.338,0.456 3.13,1.368 0.791,0.913 1.19,2.132 1.19,3.665 0,1.576 -0.449,3.593 -1.354,6.06 -0.906,2.466 -2.096,4.84 -3.572,7.129 -1.797,2.788 -3.814,4.976 -6.06,6.581 -2.239,1.603 -4.384,2.402 -6.43,2.402 -1.933,0 -3.48,-0.627 -4.635,-1.889 -1.155,-1.262 -1.732,-2.973 -1.732,-5.126 0,-2.595 0.713,-5.511 2.139,-8.762 1.425,-3.258 3.286,-6.117 5.568,-8.598 1.625,-1.768 3.514,-3.201 5.668,-4.306 2.153,-1.098 4.035,-1.647 5.646,-1.647 0.292,0 0.492,0.043 0.584,0.128 0.1,0.079 0.15,0.229 0.15,0.435 0,0.442 -0.763,0.827 -2.295,1.148 -1.533,0.321 -2.902,0.848 -4.114,1.59 -1.618,0.969 -3.051,2.181 -4.299,3.636 -1.255,1.447 -2.474,3.286 -3.657,5.511 -1.084,2.089 -1.932,4.106 -2.546,6.06 -0.613,1.946 -0.919,3.55 -0.919,4.805 0,1.597 0.413,2.887 1.233,3.849 0.82,0.97 1.89,1.455 3.216,1.455 2.003,0 4.049,-0.877 6.138,-2.624 2.089,-1.746 4.049,-4.242 5.889,-7.471 1.112,-1.968 2.003,-3.886 2.666,-5.768 0.67,-1.882 1.005,-3.336 1.005,-4.37 0,-1.077 -0.256,-1.953 -0.77,-2.645 -0.52,-0.691 -1.155,-1.034 -1.925,-1.034 -1.433,0 -2.709,0.613 -3.842,1.833 -1.127,1.219 -2.168,3.115 -3.13,5.696z"/>
    <path id="_1" class="fil0" d="M130.644 51.856c-0.057,0.143 -0.1,0.278 -0.142,0.421 -0.043,0.135 -0.064,0.228 -0.064,0.263 0,0.1 0.021,0.186 0.071,0.264 0.05,0.079 0.107,0.121 0.178,0.136 0.228,0 0.977,-0.464 2.26,-1.391 1.283,-0.926 2.987,-2.231 5.105,-3.914l0 1.719 -0.984 0.755c-4.599,3.572 -7.379,5.354 -8.341,5.354 -0.236,0 -0.428,-0.114 -0.585,-0.335 -0.15,-0.228 -0.228,-0.513 -0.228,-0.862 0,-0.157 0.043,-0.364 0.128,-0.628 0.078,-0.271 0.2,-0.577 0.349,-0.927l3.594 -7.999c0.107,-0.249 0.263,-0.584 0.456,-1.005 0.378,-0.791 0.563,-1.262 0.563,-1.419 -0.014,-0.363 -0.62,-0.591 -1.818,-0.684 -0.592,-0.043 -1.076,-0.085 -1.44,-0.128 -0.848,1.697 -1.861,3.243 -3.037,4.619 -1.169,1.383 -2.524,2.624 -4.057,3.722l0 -1.718c1.184,-0.834 2.275,-1.868 3.266,-3.094 0.998,-1.227 1.839,-2.56 2.516,-4.007 -0.278,-0.164 -0.477,-0.356 -0.592,-0.578 -0.121,-0.213 -0.178,-0.491 -0.178,-0.826 0,-0.542 0.136,-0.984 0.414,-1.327 0.278,-0.342 0.634,-0.513 1.069,-0.513 0.357,0 0.656,0.129 0.891,0.378 0.243,0.249 0.357,0.57 0.357,0.948 0,0.178 -0.014,0.35 -0.043,0.499 -0.028,0.157 -0.064,0.314 -0.121,0.485 0.349,0 0.699,-0.007 1.062,-0.021 0.114,-0.015 0.178,-0.022 0.207,-0.022 1.169,0 2.003,0.157 2.509,0.471 0.499,0.314 0.749,0.82 0.749,1.533 0,0.249 -0.064,0.563 -0.186,0.934 -0.128,0.377 -0.42,1.076 -0.876,2.11l-3.052 6.787z"/>
    <path id="_2" class="fil0" d="M151.875 47.635l0 1.711c-3.236,2.581 -5.532,4.228 -6.901,4.934 -1.361,0.706 -2.645,1.055 -3.842,1.055 -1.369,0 -2.417,-0.406 -3.137,-1.212 -0.727,-0.806 -1.091,-1.975 -1.091,-3.493 0,-1.227 0.249,-2.438 0.756,-3.643 0.499,-1.205 1.233,-2.332 2.195,-3.38 1.127,-1.226 2.367,-2.188 3.715,-2.88 1.34,-0.699 2.63,-1.048 3.857,-1.048 0.805,0 1.475,0.193 1.996,0.578 0.52,0.385 0.784,0.862 0.784,1.432 0,0.214 -0.036,0.457 -0.107,0.735 -0.071,0.278 -0.171,0.577 -0.313,0.898l-1.334 2.945 -1.504 -0.542 1.276 -2.838c0.1,-0.164 0.164,-0.313 0.207,-0.449 0.043,-0.128 0.064,-0.256 0.064,-0.364 0,-0.277 -0.1,-0.498 -0.292,-0.655 -0.193,-0.164 -0.471,-0.243 -0.834,-0.243 -0.963,0 -2.061,0.357 -3.301,1.063 -1.241,0.712 -2.317,1.625 -3.237,2.751 -0.713,0.849 -1.24,1.761 -1.597,2.724 -0.356,0.969 -0.534,1.967 -0.534,2.994 0,1.055 0.235,1.854 0.698,2.381 0.471,0.528 1.176,0.792 2.125,0.792 1.575,0 4.655,-1.797 9.246,-5.39l1.105 -0.856z"/>
    <path id="_3" class="fil0" d="M151.27 49.81l0 -1.718c0.684,-0.457 1.39,-1.034 2.117,-1.733 0.72,-0.691 1.504,-1.54 2.338,-2.545l7.621 -16.283c0.129,-0.278 0.3,-0.663 0.528,-1.148 0.692,-1.576 1.283,-2.36 1.775,-2.36 0.15,0 0.285,0.079 0.392,0.228 0.115,0.157 0.171,0.35 0.171,0.585 0,0.542 -1.019,2.944 -3.051,7.2 -0.984,2.032 -1.768,3.665 -2.338,4.905l-6.495 13.803c4.064,-4.021 7.151,-6.894 9.261,-8.612 2.11,-1.719 3.579,-2.581 4.413,-2.581 0.207,0 0.371,0.092 0.485,0.271 0.107,0.185 0.164,0.449 0.164,0.798 0,0.178 -0.036,0.378 -0.107,0.606 -0.064,0.221 -0.207,0.578 -0.414,1.062l-4.406 9.568c-0.1,0.221 -0.164,0.378 -0.199,0.478 -0.036,0.099 -0.05,0.163 -0.05,0.206 0,0.114 0.021,0.207 0.071,0.271 0.05,0.072 0.107,0.114 0.178,0.129 0.243,0 1.013,-0.471 2.325,-1.412 1.311,-0.941 3.008,-2.239 5.083,-3.893l0 1.711 -0.984 0.756c-4.599,3.572 -7.379,5.361 -8.341,5.361 -0.236,0 -0.435,-0.114 -0.606,-0.349 -0.164,-0.228 -0.25,-0.527 -0.25,-0.891 0,-0.157 0.043,-0.364 0.136,-0.62 0.092,-0.257 0.22,-0.557 0.385,-0.892l4.177 -8.79c0.236,-0.478 0.378,-0.777 0.435,-0.898 0.057,-0.129 0.086,-0.221 0.086,-0.271 0,-0.129 -0.014,-0.221 -0.043,-0.285 -0.028,-0.065 -0.071,-0.093 -0.121,-0.093 -0.186,0 -0.713,0.328 -1.583,0.984 -0.87,0.649 -1.854,1.483 -2.951,2.481 -1.355,1.183 -2.624,2.381 -3.815,3.593 -1.19,1.212 -2.245,2.367 -3.165,3.465 -0.143,0.171 -0.335,0.406 -0.585,0.713 -0.891,1.155 -1.639,1.725 -2.238,1.725 -0.264,0 -0.471,-0.1 -0.628,-0.299 -0.149,-0.207 -0.228,-0.471 -0.228,-0.806 0,-0.407 0.635,-1.754 1.904,-4.042 0.599,-1.07 1.069,-1.939 1.418,-2.595 -0.527,0.484 -1.026,0.919 -1.504,1.283 -0.47,0.371 -0.927,0.677 -1.361,0.934z"/>
    <path id="_4" class="fil0" d="M173.064 51.856c-0.072,0.15 -0.129,0.292 -0.178,0.414 -0.05,0.128 -0.079,0.213 -0.079,0.27 0,0.114 0.029,0.207 0.086,0.285 0.057,0.079 0.107,0.115 0.164,0.115 0.242,0 1.012,-0.471 2.324,-1.412 1.312,-0.941 3.008,-2.239 5.083,-3.893l0 1.711 -0.984 0.756c-4.598,3.572 -7.379,5.361 -8.341,5.361 -0.25,0 -0.456,-0.114 -0.613,-0.349 -0.164,-0.228 -0.243,-0.527 -0.243,-0.891 0,-0.2 0.036,-0.421 0.115,-0.685 0.078,-0.256 0.192,-0.534 0.342,-0.827l2.616 -5.118c-0.527,0.484 -1.034,0.919 -1.504,1.283 -0.478,0.371 -0.927,0.677 -1.362,0.934l0 -1.718c1.105,-0.806 2.068,-1.619 2.902,-2.446 0.841,-0.834 1.354,-1.44 1.547,-1.832l1.875 -3.836 1.839 0 -5.589 11.878zm5.946 -14.829c-0.307,0 -0.549,-0.093 -0.72,-0.271 -0.179,-0.178 -0.264,-0.421 -0.264,-0.713 0,-0.584 0.185,-1.133 0.556,-1.654 0.371,-0.52 0.784,-0.784 1.24,-0.784 0.293,0 0.528,0.093 0.713,0.285 0.178,0.186 0.271,0.428 0.271,0.734 0,0.656 -0.171,1.22 -0.513,1.69 -0.342,0.478 -0.77,0.713 -1.283,0.713z"/>
    <path id="_5" class="fil0" d="M191.329 46.466c2.196,-3.6 3.978,-7.243 5.347,-10.915 1.369,-3.678 2.075,-6.587 2.132,-8.747 -1.405,1.946 -2.774,4.662 -4.107,8.141 -1.333,3.479 -2.452,7.322 -3.372,11.521zm8.591 1.169l0 1.719 -1.191 0.898c-4.363,3.386 -7.008,5.083 -7.927,5.083 -0.621,0 -1.091,-0.25 -1.405,-0.756 -0.314,-0.499 -0.47,-1.262 -0.47,-2.274l0 -0.399c-1.198,1.183 -2.253,2.053 -3.159,2.602 -0.905,0.549 -1.718,0.827 -2.445,0.827 -1.155,0 -2.068,-0.456 -2.731,-1.369 -0.663,-0.912 -0.991,-2.16 -0.991,-3.75 0,-2.937 1.163,-5.497 3.48,-7.685 2.324,-2.189 5.111,-3.28 8.369,-3.28l0.086 0c1.533,-4.584 3.058,-8.27 4.584,-11.071 1.526,-2.802 2.738,-4.2 3.629,-4.2 0.278,0 0.492,0.179 0.634,0.542 0.15,0.364 0.221,0.863 0.221,1.505 0,1.097 -0.256,2.623 -0.77,4.562 -0.52,1.939 -1.254,4.142 -2.217,6.609 -1.005,2.545 -2.081,4.898 -3.23,7.037 -1.147,2.146 -2.359,4.056 -3.628,5.746 -0.05,0.292 -0.093,0.577 -0.121,0.855 -0.029,0.278 -0.043,0.549 -0.043,0.82 0,0.528 0.092,0.963 0.271,1.298 0.185,0.335 0.406,0.499 0.67,0.499 0.656,0 2.901,-1.511 6.737,-4.541l1.647 -1.277zm-10.637 1.526c0.107,-1.027 0.299,-2.167 0.57,-3.422 0.271,-1.248 0.678,-2.873 1.219,-4.862l-0.078 0c-2.495,0 -4.72,0.955 -6.673,2.866 -1.946,1.903 -2.923,3.999 -2.923,6.288 0,1.069 0.214,1.932 0.635,2.581 0.427,0.649 0.983,0.969 1.668,0.969 0.57,0 1.297,-0.349 2.181,-1.048 0.885,-0.699 2.018,-1.818 3.401,-3.372z"/>
    <path id="_6" class="fil0" d="M195.771 56.019c1.989,-1.853 3.914,-4.27 5.775,-7.257 1.853,-2.995 4.035,-7.258 6.537,-12.804 0.535,-1.198 1.198,-2.767 2.003,-4.72 1.676,-4.014 3.03,-6.017 4.071,-6.017 0.521,0 0.906,0.157 1.162,0.463 0.257,0.307 0.385,0.777 0.385,1.419 -0.014,0.307 -0.071,0.756 -0.178,1.348 -0.1,0.591 -0.257,1.34 -0.463,2.231l-4.435 19.342c7.629,-10.038 12.904,-16.719 15.82,-20.034 2.916,-3.322 4.869,-4.983 5.86,-4.983 0.335,0 0.613,0.086 0.849,0.249 0.228,0.172 0.342,0.371 0.342,0.606 0,0.713 -0.941,2.931 -2.823,6.659 -1.241,2.467 -2.239,4.484 -2.987,6.053 -1.704,3.536 -2.973,6.623 -3.808,9.247 -0.834,2.623 -1.254,4.826 -1.254,6.609l0 0.606 -2.175 0c0.043,-2.617 0.963,-6.181 2.759,-10.702 1.797,-4.519 4.613,-10.344 8.448,-17.488 -1.326,1.269 -3.386,3.594 -6.181,6.973 -2.801,3.386 -6.238,7.721 -10.323,13.011 -1.026,1.333 -2.238,3.001 -3.636,4.99 -1.525,2.196 -2.516,3.301 -2.965,3.301 -0.164,0 -0.321,-0.1 -0.457,-0.292 -0.142,-0.2 -0.206,-0.428 -0.206,-0.692 0,-0.249 0.106,-0.827 0.328,-1.732 0.085,-0.378 0.156,-0.685 0.213,-0.92l5.347 -24.125c-0.599,1.333 -1.49,3.365 -2.673,6.081 -4.456,10.345 -8.627,17.873 -12.512,22.578l-2.823 0z"/>
    <path id="_7" class="fil0" d="M238.66 51.877c-0.049,0.136 -0.099,0.271 -0.142,0.393 -0.043,0.128 -0.064,0.213 -0.064,0.27 0,0.1 0.028,0.193 0.085,0.271 0.057,0.086 0.114,0.129 0.186,0.129 0.221,0 0.991,-0.471 2.309,-1.412 1.319,-0.941 3.016,-2.239 5.091,-3.893l0 1.711 -0.521 0.4c-4.897,3.807 -7.827,5.717 -8.804,5.717 -0.207,0 -0.392,-0.099 -0.563,-0.285 -0.164,-0.192 -0.25,-0.428 -0.25,-0.706 0,-0.135 0.05,-0.363 0.143,-0.67 0.099,-0.306 0.235,-0.67 0.42,-1.091l1.369 -3.115c-1.397,2.082 -2.609,3.557 -3.643,4.427 -1.041,0.877 -2.067,1.312 -3.08,1.312 -1.062,0 -1.925,-0.449 -2.588,-1.34 -0.67,-0.892 -1.005,-2.053 -1.005,-3.487 0,-1.062 0.2,-2.067 0.606,-3.022 0.406,-0.956 1.012,-1.89 1.84,-2.809 1.39,-1.519 3.037,-2.731 4.947,-3.636 1.904,-0.906 3.75,-1.362 5.525,-1.362 0.742,0 1.398,0.071 1.968,0.221 0.57,0.15 1.126,0.392 1.668,0.727l-0.085 1.626c-0.585,-0.385 -1.162,-0.67 -1.74,-0.849 -0.577,-0.178 -1.197,-0.27 -1.846,-0.27 -1.562,0 -3.194,0.406 -4.912,1.211 -1.711,0.806 -3.102,1.833 -4.171,3.073 -0.684,0.792 -1.212,1.626 -1.576,2.496 -0.37,0.869 -0.556,1.718 -0.556,2.559 0,0.969 0.207,1.739 0.613,2.302 0.414,0.564 0.963,0.849 1.64,0.849 0.849,0 1.925,-0.706 3.23,-2.11 1.297,-1.412 3.393,-4.228 6.273,-8.456l1.676 0.164 -4.043 8.655z"/>
    <path id="_8" class="fil0" d="M245.469 49.81l0 -1.718c1.105,-0.806 2.075,-1.619 2.909,-2.453 0.834,-0.827 1.347,-1.433 1.547,-1.825l1.882 -3.836 1.839 0 -5.125 10.766c4.07,-4.021 7.157,-6.894 9.268,-8.612 2.103,-1.719 3.578,-2.581 4.413,-2.581 0.206,0 0.37,0.092 0.484,0.271 0.107,0.185 0.164,0.449 0.164,0.798 0,0.178 -0.035,0.378 -0.107,0.606 -0.064,0.221 -0.206,0.578 -0.413,1.062l-4.406 9.568c-0.093,0.221 -0.164,0.378 -0.2,0.478 -0.035,0.099 -0.05,0.163 -0.05,0.206 0,0.114 0.022,0.207 0.072,0.271 0.05,0.072 0.107,0.114 0.178,0.129 0.235,0 1.012,-0.471 2.324,-1.412 1.312,-0.934 3.009,-2.239 5.083,-3.893l0 1.711 -0.984 0.756c-4.598,3.572 -7.378,5.361 -8.341,5.361 -0.242,0 -0.442,-0.114 -0.606,-0.349 -0.171,-0.228 -0.256,-0.527 -0.256,-0.891 0,-0.157 0.05,-0.364 0.142,-0.62 0.086,-0.257 0.214,-0.557 0.385,-0.892l4.178 -8.79c0.235,-0.478 0.378,-0.777 0.435,-0.898 0.057,-0.129 0.085,-0.221 0.085,-0.271 0,-0.129 -0.014,-0.221 -0.042,-0.285 -0.029,-0.065 -0.072,-0.093 -0.122,-0.093 -0.185,0 -0.712,0.328 -1.582,0.984 -0.87,0.649 -1.854,1.483 -2.952,2.481 -1.354,1.183 -2.623,2.381 -3.814,3.593 -1.191,1.212 -2.246,2.367 -3.165,3.465 -0.143,0.171 -0.336,0.406 -0.585,0.713 -0.891,1.155 -1.64,1.725 -2.239,1.725 -0.264,0 -0.47,-0.1 -0.627,-0.299 -0.15,-0.207 -0.228,-0.471 -0.228,-0.806 0,-0.407 0.634,-1.754 1.903,-4.042 0.599,-1.07 1.07,-1.939 1.419,-2.595 -0.527,0.491 -1.034,0.919 -1.504,1.283 -0.471,0.371 -0.927,0.684 -1.362,0.934z"/>
    <path id="_9" class="fil0" d="M267.263 51.856c-0.071,0.15 -0.128,0.292 -0.178,0.414 -0.05,0.128 -0.078,0.213 -0.078,0.27 0,0.114 0.028,0.207 0.085,0.285 0.058,0.079 0.107,0.115 0.164,0.115 0.243,0 1.013,-0.471 2.325,-1.412 1.311,-0.941 3.008,-2.239 5.083,-3.893l0 1.711 -0.984 0.756c-4.599,3.572 -7.379,5.361 -8.342,5.361 -0.249,0 -0.456,-0.114 -0.613,-0.349 -0.164,-0.228 -0.242,-0.527 -0.242,-0.891 0,-0.2 0.036,-0.421 0.114,-0.685 0.078,-0.256 0.193,-0.534 0.342,-0.827l2.617 -5.118c-0.528,0.484 -1.034,0.919 -1.505,1.283 -0.477,0.371 -0.926,0.677 -1.361,0.934l0 -1.718c1.105,-0.806 2.067,-1.619 2.901,-2.446 0.842,-0.834 1.355,-1.44 1.548,-1.832l1.874 -3.836 1.84 0 -5.59 11.878zm5.946 -14.829c-0.306,0 -0.549,-0.093 -0.72,-0.271 -0.178,-0.178 -0.263,-0.421 -0.263,-0.713 0,-0.584 0.185,-1.133 0.555,-1.654 0.371,-0.52 0.785,-0.784 1.241,-0.784 0.292,0 0.528,0.093 0.713,0.285 0.178,0.186 0.271,0.428 0.271,0.734 0,0.656 -0.171,1.22 -0.513,1.69 -0.343,0.478 -0.77,0.713 -1.284,0.713z"/>
    <path id="_10" class="fil0" d="M285.03 51.877c-0.05,0.136 -0.1,0.271 -0.143,0.393 -0.043,0.128 -0.064,0.213 -0.064,0.27 0,0.1 0.029,0.193 0.086,0.271 0.057,0.086 0.114,0.129 0.185,0.129 0.221,0 0.991,-0.471 2.31,-1.412 1.319,-0.941 3.015,-2.239 5.09,-3.893l0 1.711 -0.52 0.4c-4.898,3.807 -7.828,5.717 -8.805,5.717 -0.207,0 -0.392,-0.099 -0.563,-0.285 -0.164,-0.192 -0.25,-0.428 -0.25,-0.706 0,-0.135 0.05,-0.363 0.143,-0.67 0.1,-0.306 0.235,-0.67 0.421,-1.091l1.368 -3.115c-1.397,2.082 -2.609,3.557 -3.643,4.427 -1.041,0.877 -2.067,1.312 -3.08,1.312 -1.062,0 -1.925,-0.449 -2.588,-1.34 -0.67,-0.892 -1.005,-2.053 -1.005,-3.487 0,-1.062 0.2,-2.067 0.606,-3.022 0.407,-0.956 1.013,-1.89 1.84,-2.809 1.39,-1.519 3.037,-2.731 4.947,-3.636 1.904,-0.906 3.75,-1.362 5.526,-1.362 0.741,0 1.397,0.071 1.967,0.221 0.57,0.15 1.127,0.392 1.668,0.727l-0.085 1.626c-0.585,-0.385 -1.162,-0.67 -1.74,-0.849 -0.577,-0.178 -1.197,-0.27 -1.846,-0.27 -1.561,0 -3.194,0.406 -4.912,1.211 -1.711,0.806 -3.101,1.833 -4.171,3.073 -0.684,0.792 -1.212,1.626 -1.575,2.496 -0.371,0.869 -0.557,1.718 -0.557,2.559 0,0.969 0.207,1.739 0.614,2.302 0.413,0.564 0.962,0.849 1.639,0.849 0.849,0 1.925,-0.706 3.23,-2.11 1.297,-1.412 3.394,-4.228 6.274,-8.456l1.675 0.164 -4.042 8.655z"/>
   </g>
   <g>
    <path class="fil0" d="M7.678 26.436l0 0.057 -0.058 -0.057 -0.057 0.114 -0.057 0.057 0.057 0 0 0.057c0.457,0.343 0.857,0.743 1.257,1.199 0.285,0.457 0.571,0.914 0.742,1.371 0.229,0.457 0.343,0.971 0.4,1.428 0.057,0.457 0.057,0.914 0,1.314 -0.114,0.228 -0.171,0.571 -0.343,0.971 -0.171,0.399 -0.342,0.799 -0.514,1.256 -0.171,0.457 -0.4,0.914 -0.514,1.314 -0.228,0.457 -0.342,0.856 -0.399,1.256 -0.172,0.743 -0.229,1.542 -0.115,2.399 0.115,0.857 0.343,1.713 0.628,2.513 0.4,0.857 0.857,1.656 1.371,2.399 0.572,0.799 1.2,1.485 1.942,1.999 1.085,1.028 2.285,1.941 3.713,2.741 0.171,0.057 0.342,0.171 0.514,0.286l0 0.057c0.171,0.057 0.342,0.171 0.571,0.285 0.571,0.286 1.142,0.629 1.713,0.914 -0.057,0.057 -0.114,0.114 -0.229,0.172 -0.342,0.285 -0.742,0.685 -1.027,1.142 -0.343,0.457 -0.572,0.856 -0.8,1.313 -0.171,0.514 -0.286,0.971 -0.343,1.485 -0.057,0.514 -0.057,0.914 0.057,1.314 0,0.228 0.115,0.457 0.229,0.743 0.057,0.228 0.171,0.456 0.285,0.742 0.057,0.228 0.172,0.514 0.286,0.742 0.114,0.172 0.171,0.4 0.171,0.515 0,0.228 0.057,0.456 0,0.742 0,0.285 -0.057,0.514 -0.171,0.8 -0.114,0.285 -0.286,0.513 -0.457,0.799 -0.228,0.228 -0.457,0.457 -0.685,0.685l-0.057 0 0.057 0.058 0 0.057 0 -0.057 0.057 0.057c0.285,-0.172 0.571,-0.286 0.914,-0.286 0.285,-0.057 0.628,-0.057 0.913,0 0.286,0 0.571,0.114 0.8,0.229 0.228,0.057 0.457,0.228 0.628,0.342 0.115,0.114 0.229,0.229 0.4,0.457 0.114,0.171 0.286,0.4 0.457,0.628 0.172,0.172 0.343,0.4 0.514,0.629 0.171,0.171 0.343,0.4 0.514,0.571 0.286,0.228 0.686,0.457 1.142,0.685 0.4,0.172 0.914,0.286 1.428,0.4 0.514,0.057 1.028,0.057 1.542,0 0.571,-0.057 1.029,-0.171 1.542,-0.343 0.857,-0.343 1.714,-0.685 2.342,-1.028 0.114,-0.114 0.228,-0.171 0.343,-0.228 0.057,-0.057 0.171,-0.114 0.285,-0.171 1.2,-0.743 2.228,-1.543 3.084,-2.514 0.058,0.457 0.115,0.857 0.172,1.314 0.114,0.742 0.228,1.485 0.514,2.171 0.228,0.742 0.514,1.37 0.856,1.941 0.343,0.628 0.743,1.143 1.2,1.542 0.4,0.457 0.857,0.743 1.313,0.914 0.229,0.114 0.457,0.171 0.8,0.229 0.286,0.057 0.571,0.114 0.857,0.228 0.342,0 0.628,0.057 0.857,0.114 0.285,0.057 0.457,0.115 0.628,0.172 0.285,0.114 0.514,0.285 0.742,0.514 0.229,0.228 0.457,0.514 0.629,0.856 0.171,0.343 0.342,0.743 0.513,1.142 0.115,0.457 0.229,0.857 0.229,1.371l0.057 0 0 0.057 0.057 0 0.057 0 0 -0.057c0,-0.514 0.115,-0.914 0.229,-1.371 0.171,-0.399 0.343,-0.799 0.514,-1.142 0.228,-0.342 0.4,-0.628 0.685,-0.856 0.229,-0.229 0.4,-0.4 0.686,-0.514 0.171,-0.057 0.399,-0.115 0.628,-0.172 0.228,-0.057 0.514,-0.114 0.856,-0.114 0.286,-0.114 0.572,-0.171 0.857,-0.228 0.343,-0.058 0.571,-0.115 0.8,-0.229 0.457,-0.171 0.856,-0.457 1.313,-0.914 0.4,-0.399 0.857,-0.914 1.2,-1.542 0.343,-0.571 0.628,-1.199 0.857,-1.941 0.285,-0.686 0.399,-1.429 0.514,-2.171 0.056,-0.457 0.114,-0.857 0.171,-1.314 0.8,0.971 1.828,1.771 3.084,2.514 0.057,0.057 0.171,0.114 0.286,0.171 0.114,0.057 0.228,0.114 0.285,0.228 0.685,0.343 1.485,0.685 2.399,1.028 0.457,0.172 0.971,0.286 1.542,0.343 0.514,0.057 1.028,0.057 1.542,0 0.514,-0.114 0.971,-0.228 1.428,-0.4 0.457,-0.228 0.857,-0.457 1.142,-0.685 0.172,-0.171 0.343,-0.4 0.514,-0.571 0.114,-0.229 0.286,-0.457 0.514,-0.629 0.115,-0.228 0.286,-0.457 0.457,-0.628 0.115,-0.228 0.286,-0.343 0.4,-0.457 0.171,-0.114 0.343,-0.285 0.628,-0.342 0.229,-0.115 0.457,-0.229 0.8,-0.229 0.285,-0.057 0.571,-0.057 0.914,0 0.285,0 0.628,0.114 0.913,0.286l0 -0.057 0.058 0.057 0 -0.057 0.057 -0.058 -0.057 0c-0.286,-0.228 -0.514,-0.457 -0.686,-0.685 -0.228,-0.286 -0.343,-0.514 -0.457,-0.799 -0.114,-0.286 -0.171,-0.515 -0.228,-0.8 0,-0.286 0,-0.514 0.057,-0.742 0,-0.115 0.057,-0.343 0.171,-0.515 0.057,-0.228 0.172,-0.514 0.286,-0.742 0.114,-0.286 0.171,-0.514 0.285,-0.742 0.115,-0.286 0.172,-0.515 0.229,-0.743 0.114,-0.4 0.114,-0.8 0.057,-1.314 -0.057,-0.514 -0.171,-0.971 -0.4,-1.485 -0.171,-0.457 -0.457,-0.856 -0.742,-1.313 -0.343,-0.457 -0.686,-0.857 -1.085,-1.142 -0.058,-0.058 -0.115,-0.115 -0.172,-0.172 0.571,-0.285 1.143,-0.571 1.714,-0.914 0.171,-0.114 0.342,-0.228 0.514,-0.285l0.057 -0.057c0.171,-0.115 0.342,-0.229 0.514,-0.286 1.371,-0.8 2.627,-1.713 3.712,-2.741 0.685,-0.514 1.371,-1.2 1.885,-1.999 0.571,-0.743 1.028,-1.542 1.371,-2.399 0.342,-0.8 0.571,-1.656 0.685,-2.513 0.057,-0.857 0.057,-1.656 -0.114,-2.399 -0.057,-0.4 -0.229,-0.799 -0.4,-1.256 -0.171,-0.4 -0.343,-0.857 -0.514,-1.314 -0.171,-0.457 -0.4,-0.857 -0.514,-1.256 -0.171,-0.4 -0.285,-0.743 -0.343,-0.971 -0.057,-0.4 -0.114,-0.857 -0.057,-1.314 0.057,-0.457 0.229,-0.971 0.4,-1.428 0.229,-0.457 0.457,-0.914 0.8,-1.371 0.342,-0.456 0.742,-0.856 1.256,-1.199l0 -0.057 0.057 0 -0.114 -0.057 0 -0.114 -0.057 0.057 0 -0.057c-0.571,0.285 -1.085,0.399 -1.657,0.514 -0.57,0 -1.085,0 -1.599,0 -0.514,-0.115 -1.028,-0.229 -1.428,-0.4 -0.456,-0.172 -0.799,-0.4 -1.084,-0.686 -0.229,-0.171 -0.458,-0.456 -0.686,-0.742 -0.286,-0.343 -0.571,-0.743 -0.857,-1.142 -0.285,-0.343 -0.628,-0.686 -0.914,-1.085 -0.285,-0.4 -0.571,-0.686 -0.856,-0.972 -0.571,-0.513 -1.257,-0.913 -1.999,-1.256 -0.857,-0.343 -1.657,-0.571 -2.57,-0.685 -0.914,-0.171 -1.828,-0.171 -2.742,-0.058 -0.971,0.115 -1.885,0.343 -2.684,0.686 -0.743,0.228 -1.428,0.514 -1.999,0.8 -0.057,-1.029 -0.228,-1.999 -0.4,-2.97 -0.114,-0.8 -0.343,-1.542 -0.685,-2.342 -0.343,-0.742 -0.743,-1.428 -1.257,-2.056 -0.514,-0.628 -1.085,-1.199 -1.656,-1.656 -0.628,-0.458 -1.199,-0.8 -1.828,-0.971 -0.342,-0.115 -0.742,-0.229 -1.142,-0.286 -0.4,-0.057 -0.8,-0.114 -1.256,-0.171 -0.4,-0.057 -0.857,-0.114 -1.257,-0.172 -0.343,-0.057 -0.628,-0.114 -0.857,-0.171 -0.342,-0.114 -0.685,-0.286 -0.971,-0.514 -0.342,-0.285 -0.628,-0.571 -0.913,-0.971 -0.286,-0.343 -0.514,-0.742 -0.743,-1.199 -0.171,-0.457 -0.286,-0.971 -0.343,-1.485l0 -0.057 -0.114 0.057 -0.057 -0.057 0 0.057c-0.057,0.514 -0.172,1.028 -0.4,1.485 -0.228,0.457 -0.457,0.856 -0.685,1.199 -0.286,0.4 -0.629,0.686 -0.914,0.971 -0.343,0.228 -0.685,0.4 -1.028,0.514 -0.229,0.057 -0.514,0.114 -0.857,0.171 -0.399,0.058 -0.799,0.115 -1.256,0.172 -0.4,0.057 -0.8,0.114 -1.2,0.171 -0.457,0.057 -0.856,0.171 -1.142,0.286 -0.628,0.171 -1.256,0.513 -1.828,0.971 -0.628,0.457 -1.199,1.028 -1.713,1.656 -0.457,0.628 -0.914,1.314 -1.199,2.056 -0.343,0.8 -0.572,1.542 -0.686,2.342 -0.228,1.085 -0.342,2.056 -0.4,2.97 -0.628,-0.286 -1.256,-0.572 -1.999,-0.8 -0.856,-0.343 -1.77,-0.571 -2.684,-0.686 -0.971,-0.113 -1.885,-0.113 -2.741,0.058 -0.914,0.114 -1.771,0.342 -2.571,0.685 -0.799,0.343 -1.484,0.743 -1.999,1.256 -0.342,0.286 -0.628,0.572 -0.913,0.972 -0.286,0.399 -0.571,0.742 -0.857,1.085 -0.343,0.399 -0.571,0.799 -0.857,1.142 -0.228,0.286 -0.457,0.571 -0.685,0.742 -0.286,0.286 -0.685,0.514 -1.085,0.686 -0.457,0.171 -0.914,0.285 -1.428,0.4 -0.514,0 -1.028,0 -1.599,0 -0.629,-0.115 -1.142,-0.229 -1.656,-0.514zm1.542 1.028l0 0c0.571,0.114 1.256,0.171 1.884,0.171 0.8,0 1.599,-0.057 2.285,-0.228 0.8,-0.115 1.485,-0.343 2.056,-0.629 0.628,-0.285 1.085,-0.571 1.542,-0.971 0.228,-0.228 0.457,-0.514 0.8,-0.913 0.342,-0.343 0.628,-0.743 0.913,-1.143 0.286,-0.399 0.572,-0.742 0.857,-1.085 0.286,-0.4 0.571,-0.685 0.8,-0.856 0.628,-0.572 1.428,-0.972 2.456,-1.143 1.028,-0.171 2.17,-0.057 3.483,0.343 0.914,0.228 1.714,0.514 2.456,0.8 0.115,0.056 0.229,0.113 0.286,0.113 0.628,0.286 1.199,0.515 1.713,0.8l0 0.057c0.229,0.057 0.4,0.172 0.572,0.286 0.171,0.057 0.342,0.171 0.571,0.286 0.457,0.285 0.971,0.571 1.428,0.913 3.027,2.285 5.197,5.141 6.454,8.625 0.742,1.884 1.085,3.769 1.085,5.539 -0.057,0.4 -0.057,0.8 -0.115,1.257 -0.114,1.085 -0.342,2.113 -0.742,3.141 -0.172,0.457 -0.343,0.857 -0.571,1.257 -0.286,-0.115 -0.629,-0.286 -0.971,-0.457 -0.172,-0.115 -0.286,-0.172 -0.457,-0.229 -1.999,-0.971 -4.284,-2.17 -6.797,-3.541 -2.627,-1.37 -5.368,-2.855 -8.167,-4.454l-0.286 -0.172 0.115 0.114 -0.172 0 0.286 0.114 0 0.058c2.799,1.656 5.426,3.255 7.939,4.797 2.456,1.542 4.626,2.913 6.454,4.17 0.285,0.171 0.514,0.342 0.799,0.514 0.172,0.114 0.343,0.228 0.571,0.342 -1.085,1.657 -2.398,2.97 -3.998,3.941 -0.285,0.171 -0.514,0.286 -0.742,0.457 -0.114,0.057 -0.228,0.114 -0.343,0.171 -0.228,0.114 -0.457,0.229 -0.742,0.286 -1.142,0.514 -2.399,0.914 -3.77,1.142 -3.484,0.571 -6.853,0.228 -10.109,-1.085 -0.114,0 -0.171,-0.057 -0.286,-0.114 -0.114,0 -0.228,-0.057 -0.285,-0.115 -0.514,-0.228 -1.028,-0.514 -1.599,-0.799 -0.115,-0.114 -0.286,-0.229 -0.457,-0.286l-0.057 0c-0.172,-0.171 -0.343,-0.285 -0.514,-0.342 -1.371,-0.914 -2.628,-1.942 -3.713,-3.085 -0.971,-0.913 -1.656,-1.884 -2.056,-2.855 -0.342,-0.971 -0.399,-1.885 -0.228,-2.685 0.057,-0.342 0.171,-0.685 0.343,-1.084 0.171,-0.458 0.342,-0.914 0.513,-1.371 0.229,-0.4 0.4,-0.857 0.572,-1.314 0.171,-0.457 0.285,-0.799 0.342,-1.142 0.115,-0.571 0.172,-1.143 0.115,-1.828 -0.058,-0.685 -0.229,-1.313 -0.457,-2.056 -0.229,-0.685 -0.572,-1.428 -0.971,-2.17 -0.343,-0.514 -0.686,-1.028 -1.085,-1.542zm19.875 -5.94l0 0c0.057,-0.971 0.286,-2.056 0.571,-3.199 0.229,-1.199 0.686,-2.17 1.257,-2.855 0.628,-0.686 1.256,-1.143 1.942,-1.371 0.285,-0.114 0.628,-0.171 1.028,-0.228 0.342,-0.057 0.799,-0.115 1.199,-0.172 0.457,-0.057 0.857,-0.114 1.314,-0.171 0.399,-0.057 0.742,-0.171 1.028,-0.229 0.457,-0.171 0.914,-0.399 1.428,-0.742 0.457,-0.343 0.914,-0.742 1.37,-1.257 0.4,-0.514 0.8,-1.085 1.2,-1.713 0.228,-0.457 0.514,-0.971 0.685,-1.485 0.229,0.514 0.457,1.028 0.743,1.485 0.342,0.628 0.742,1.199 1.199,1.713 0.4,0.515 0.857,0.914 1.371,1.257 0.457,0.343 0.913,0.571 1.37,0.742 0.343,0.058 0.686,0.172 1.086,0.229 0.456,0.057 0.856,0.114 1.256,0.171 0.457,0.057 0.857,0.115 1.2,0.172 0.456,0.057 0.799,0.114 1.028,0.228 0.742,0.228 1.37,0.685 1.942,1.371 0.628,0.685 1.027,1.656 1.313,2.855 0.286,0.971 0.514,2.056 0.628,3.199 -0.685,0.286 -1.313,0.628 -1.884,0.971 -0.172,0.057 -0.343,0.171 -0.572,0.342 -0.171,0.058 -0.342,0.172 -0.514,0.286 -4.397,2.513 -7.367,5.94 -8.966,10.338 -0.343,0.742 -0.572,1.542 -0.743,2.284 -0.057,-1.656 -0.114,-3.427 -0.228,-5.426 -0.058,-2.57 -0.115,-5.311 -0.172,-8.167l0 -0.057 0 -0.229 -0.057 0.115 0 -0.115 0 0.229 -0.057 0.057c0,2.856 -0.057,5.597 -0.114,8.167 -0.115,1.999 -0.171,3.77 -0.286,5.426 -0.171,-0.742 -0.4,-1.542 -0.685,-2.284 -1.599,-4.398 -4.626,-7.825 -8.967,-10.338 -0.171,-0.114 -0.343,-0.228 -0.514,-0.286 -0.228,-0.171 -0.4,-0.285 -0.571,-0.342 -0.571,-0.343 -1.199,-0.629 -1.828,-0.971zm23.303 1.828l0 0c0.171,-0.115 0.342,-0.229 0.514,-0.286l0.057 0c0.171,-0.114 0.343,-0.229 0.514,-0.286l0 -0.057c0.571,-0.285 1.142,-0.514 1.77,-0.8 0.115,0 0.229,-0.057 0.286,-0.113 0.742,-0.286 1.542,-0.572 2.399,-0.8 1.313,-0.4 2.513,-0.514 3.541,-0.343 0.971,0.171 1.827,0.571 2.456,1.143 0.228,0.171 0.457,0.456 0.742,0.856 0.286,0.343 0.628,0.686 0.914,1.085 0.285,0.4 0.571,0.8 0.914,1.143 0.285,0.399 0.571,0.685 0.799,0.913 0.4,0.4 0.914,0.686 1.543,0.971 0.57,0.286 1.256,0.514 1.999,0.629 0.742,0.171 1.542,0.228 2.341,0.228 0.628,0 1.257,-0.057 1.885,-0.171 -0.4,0.514 -0.743,1.028 -1.085,1.542 -0.4,0.742 -0.743,1.485 -0.971,2.17 -0.229,0.743 -0.4,1.371 -0.457,2.056 -0.057,0.685 -0.057,1.257 0.057,1.828 0.114,0.343 0.228,0.685 0.4,1.142 0.171,0.457 0.342,0.914 0.514,1.314 0.228,0.457 0.4,0.913 0.514,1.371 0.171,0.399 0.285,0.742 0.4,1.084 0.171,0.8 0.057,1.714 -0.286,2.685 -0.343,0.971 -1.028,1.942 -2.056,2.855 -1.028,1.143 -2.285,2.171 -3.655,3.085l-0.058 0c-0.171,0.057 -0.342,0.171 -0.514,0.342 -0.171,0.057 -0.342,0.172 -0.514,0.286 -0.514,0.285 -1.028,0.571 -1.542,0.799 -0.114,0.058 -0.228,0.115 -0.285,0.115 -0.115,0.057 -0.229,0.114 -0.286,0.114 -3.312,1.313 -6.682,1.656 -10.109,1.085 -1.371,-0.228 -2.627,-0.628 -3.826,-1.085 -0.229,-0.114 -0.457,-0.229 -0.686,-0.343 -0.114,-0.057 -0.285,-0.114 -0.343,-0.171 -0.285,-0.171 -0.514,-0.286 -0.799,-0.457 -1.542,-0.971 -2.856,-2.284 -3.941,-3.941 0.171,-0.114 0.4,-0.228 0.571,-0.342 0.228,-0.172 0.514,-0.343 0.743,-0.514 1.884,-1.257 4.055,-2.628 6.511,-4.17 2.455,-1.542 5.14,-3.141 7.881,-4.797l0.058 -0.058 0.285 -0.114 -0.172 0 0.115 -0.114 -0.343 0.172c-2.798,1.599 -5.483,3.084 -8.11,4.454 -2.57,1.371 -4.855,2.57 -6.797,3.541 -0.171,0.057 -0.342,0.114 -0.514,0.229 -0.285,0.171 -0.628,0.342 -0.913,0.457 -0.229,-0.4 -0.457,-0.8 -0.572,-1.257 -0.399,-1.028 -0.685,-2.056 -0.799,-3.141 0,-0.4 -0.057,-0.799 -0.057,-1.257 0,-1.77 0.343,-3.655 1.085,-5.539 1.256,-3.484 3.427,-6.34 6.397,-8.625 0.513,-0.342 0.971,-0.628 1.485,-0.913zm7.31 33.24l0 0 0.171 0.056 -0.114 -0.056 0.114 0.056 -0.171 -0.113c-1.599,-0.971 -3.084,-1.828 -4.512,-2.685 -1.313,-0.857 -2.513,-1.656 -3.541,-2.342 0.743,0.229 1.542,0.4 2.399,0.572 3.884,0.628 7.71,0.114 11.423,-1.6 0.114,0.115 0.228,0.229 0.399,0.4 0.515,0.514 0.914,1.028 1.143,1.599 0.171,0.514 0.228,1.085 0.114,1.543 0,0.171 -0.114,0.399 -0.171,0.628 -0.115,0.228 -0.229,0.456 -0.286,0.742 -0.114,0.229 -0.228,0.514 -0.343,0.743 -0.057,0.228 -0.171,0.457 -0.171,0.685 -0.114,0.286 -0.114,0.628 -0.057,0.971 0,0.4 0.114,0.799 0.228,1.199 0.172,0.4 0.343,0.8 0.572,1.2 0.171,0.285 0.399,0.571 0.628,0.856 -0.4,-0.057 -0.743,-0.057 -1.085,-0.057 -0.457,0 -0.914,0.057 -1.314,0.114 -0.4,0.115 -0.8,0.229 -1.142,0.343 -0.343,0.172 -0.629,0.343 -0.857,0.571 -0.171,0.172 -0.343,0.343 -0.457,0.515 -0.228,0.228 -0.4,0.399 -0.514,0.628 -0.171,0.228 -0.343,0.457 -0.514,0.628 -0.171,0.228 -0.286,0.4 -0.457,0.514 -0.342,0.285 -0.799,0.514 -1.371,0.628 -0.571,0.114 -1.256,0.057 -1.999,-0.171 -0.97,-0.343 -1.77,-0.628 -2.512,-1.028 -0.115,0 -0.229,-0.057 -0.286,-0.114l-0.057 -0.057c-0.057,-0.058 -0.172,-0.115 -0.286,-0.115 -0.285,-0.171 -0.571,-0.343 -0.799,-0.514 -0.914,-0.685 -1.714,-1.485 -2.342,-2.342 0.057,-0.742 0.114,-1.37 0.114,-1.999 0,-0.114 0,-0.285 0,-0.513 0,-0.172 0,-0.343 0,-0.515 0,-1.998 -0.229,-3.883 -0.685,-5.597 0.114,0 0.171,0.057 0.228,0.115 1.143,0.514 2.399,1.199 3.884,1.999 1.485,0.742 3.027,1.599 4.569,2.513l0.057 0zm-17.02 -14.05l0 0 0.057 -0.057 0 0.057c-0.057,0 -0.057,0 -0.057,0zm-1.142 -0.057l0 0 0.114 0.057c-0.057,0 -0.114,0 -0.114,0 0,-0.057 0,-0.057 0,-0.057zm1.028 1.142l0 0c0.229,0.057 0.4,0.057 0.571,0.057 0.114,0.343 0.286,0.685 0.457,1.028 0.114,0.228 0.228,0.457 0.4,0.742 0.114,0.229 0.285,0.457 0.4,0.686 1.485,2.17 3.369,3.826 5.882,4.854 0.058,0.172 0.058,0.343 0.172,0.571 0.057,0 0.057,0.058 0.057,0.172 0.457,1.37 0.8,2.856 0.913,4.455 0.058,0.456 0.058,0.914 0.058,1.37 0,0.172 0,0.343 0,0.515 0,0.171 0,0.342 0,0.513 -0.058,0.515 -0.058,1.086 -0.171,1.657 0,0.171 0,0.342 -0.058,0.514 -0.057,0.571 -0.171,1.142 -0.228,1.771 -0.229,1.085 -0.514,1.941 -0.971,2.627 -0.4,0.628 -0.857,1.085 -1.371,1.256 -0.171,0.114 -0.4,0.171 -0.685,0.229 -0.286,0.057 -0.571,0.114 -0.857,0.171 -0.343,0 -0.628,0.057 -0.914,0.171 -0.285,0.057 -0.571,0.114 -0.742,0.229 -0.343,0.114 -0.686,0.342 -1.028,0.628 -0.343,0.343 -0.629,0.742 -0.971,1.199 -0.286,0.457 -0.571,0.971 -0.857,1.599 -0.171,0.4 -0.343,0.914 -0.457,1.371 -0.171,-0.457 -0.343,-0.971 -0.514,-1.371 -0.285,-0.628 -0.514,-1.142 -0.856,-1.599 -0.286,-0.457 -0.629,-0.856 -0.972,-1.199 -0.342,-0.286 -0.685,-0.514 -1.028,-0.628 -0.171,-0.115 -0.456,-0.172 -0.742,-0.229 -0.285,-0.114 -0.571,-0.171 -0.857,-0.171 -0.342,-0.057 -0.628,-0.114 -0.914,-0.171 -0.285,-0.058 -0.513,-0.115 -0.685,-0.229 -0.514,-0.171 -0.971,-0.628 -1.371,-1.256 -0.456,-0.686 -0.742,-1.542 -0.913,-2.627 -0.172,-0.572 -0.229,-1.143 -0.343,-1.714 0,-0.229 0,-0.4 -0.057,-0.514 -0.057,-0.571 -0.114,-1.142 -0.114,-1.714 0,-0.171 0,-0.342 0,-0.513 0,-0.172 0,-0.343 0,-0.515 0,-0.456 0,-0.914 0,-1.427 0.171,-1.542 0.457,-3.028 0.913,-4.398 0.058,-0.057 0.058,-0.114 0.115,-0.229 0,-0.171 0.057,-0.342 0.171,-0.514 2.456,-1.028 4.398,-2.684 5.825,-4.854 0.172,-0.229 0.286,-0.457 0.457,-0.686 0.115,-0.285 0.229,-0.514 0.4,-0.742 0.172,-0.343 0.286,-0.685 0.457,-1.028 0.172,0 0.343,-0.057 0.571,-0.057 0,0.457 0,0.857 0.058,1.313 0.056,1.828 0.113,3.941 0.228,6.34 0.057,2.399 0.057,4.969 0.114,7.596l0 0.057 0 0.229 0.057 -0.115 0 0.115 0 -0.286c0,-2.627 0.057,-5.197 0.114,-7.596 0.115,-2.399 0.172,-4.512 0.229,-6.34 0.057,-0.456 0.057,-0.856 0.057,-1.313zm-9.481 8.453l0 0c0.057,-0.058 0.114,-0.115 0.172,-0.115 -0.4,1.714 -0.629,3.599 -0.629,5.597 0,0.172 0,0.343 0,0.515 0,0.171 0,0.342 0,0.513 0,0.686 0,1.314 0.057,1.999 -0.628,0.857 -1.37,1.657 -2.284,2.342 -0.229,0.171 -0.514,0.343 -0.8,0.514 -0.114,0 -0.228,0.057 -0.343,0.115l0 0.057c-0.114,0.057 -0.228,0.114 -0.285,0.114 -0.743,0.4 -1.599,0.685 -2.57,1.028 -0.743,0.228 -1.371,0.285 -1.942,0.171 -0.628,-0.114 -1.085,-0.343 -1.428,-0.628 -0.114,-0.114 -0.286,-0.286 -0.4,-0.514 -0.171,-0.171 -0.342,-0.4 -0.514,-0.628 -0.171,-0.229 -0.342,-0.4 -0.514,-0.628 -0.171,-0.172 -0.342,-0.343 -0.457,-0.515 -0.228,-0.228 -0.514,-0.399 -0.857,-0.571 -0.342,-0.114 -0.742,-0.228 -1.142,-0.343 -0.457,-0.057 -0.857,-0.114 -1.313,-0.114 -0.4,0 -0.743,0 -1.086,0.057 0.229,-0.285 0.4,-0.571 0.629,-0.856 0.228,-0.4 0.342,-0.8 0.514,-1.2 0.114,-0.4 0.286,-0.799 0.286,-1.199 0.057,-0.343 0,-0.685 -0.058,-0.971 -0.057,-0.228 -0.114,-0.457 -0.228,-0.685 -0.057,-0.229 -0.172,-0.514 -0.286,-0.743 -0.114,-0.286 -0.228,-0.514 -0.285,-0.742 -0.115,-0.229 -0.172,-0.457 -0.229,-0.628 -0.057,-0.458 -0.057,-1.029 0.172,-1.543 0.171,-0.571 0.571,-1.085 1.142,-1.599 0.114,-0.171 0.228,-0.285 0.4,-0.4 3.712,1.714 7.539,2.228 11.422,1.6 0.8,-0.172 1.6,-0.343 2.399,-0.572 -1.028,0.686 -2.227,1.485 -3.598,2.342 -1.371,0.857 -2.913,1.714 -4.455,2.685l-0.057 0 -0.114 0.113 0.057 -0.056 -0.057 0.056 0.171 -0.056c1.542,-0.914 3.141,-1.771 4.626,-2.513 1.428,-0.8 2.742,-1.485 3.884,-1.999z"/>
   </g>
  </g>
 </g>
</svg>
